<svg width="375" height="288" viewBox="0 0 375 288" fill="none" xmlns="http://www.w3.org/2000/svg">
<g clip-path="url(#clip0_1122_2556)">
<path d="M150.195 162.402C165.389 157.809 181.246 155.513 197.125 155.059C205.042 154.831 212.982 155.104 220.831 156.036C227.97 156.9 235.223 158.173 242.042 160.538C247.991 162.584 254.307 166.495 253.734 173.611C253.757 173.406 253.78 173.225 253.78 173.02L253.917 172.133C255.496 162.834 257.098 153.558 258.677 144.259C258.883 143.259 258.906 143.099 258.745 143.759C258.791 143.577 258.837 143.372 258.883 143.191C257.716 147.351 254.97 150.739 252.293 154.035C249.661 157.264 246.939 160.515 245.062 164.244C244.101 166.176 243.392 168.041 242.934 170.132C241.607 176.226 240.738 182.591 239.708 188.73C238.862 193.732 237.763 198.825 237.328 203.895C236.985 207.851 238.129 211.58 240.806 214.558C246.366 220.742 255.29 222.448 263.276 222.47C271.628 222.47 280.094 220.992 288.377 222.652C292.61 223.516 296.729 225.267 299.704 228.45C302.701 231.656 305.561 236.453 305.241 240.977C305.264 240.773 305.287 240.591 305.287 240.386C305.63 238.158 305.996 235.952 306.339 233.725C307.735 225.835 309.108 217.923 310.504 210.034C310.481 210.148 310.458 210.238 310.435 210.352C310.481 210.17 310.527 209.966 310.572 209.784C308.673 217.059 300.093 218.06 293.823 218.423C293.663 218.423 292.771 223.812 292.908 223.13C292.221 226.927 291.558 230.723 290.917 234.543C290.276 238.34 289.613 242.159 289.018 245.957C288.949 246.434 288.377 250.708 288.331 250.708C292.176 250.481 296.226 250.276 299.681 248.457C301.145 247.685 302.495 246.616 303.525 245.297C305.103 243.251 305.401 240.795 305.859 238.317C307.255 230.723 308.559 223.107 309.794 215.491C310.206 212.921 310.938 210.193 310.824 207.556C310.732 205.646 310.069 203.804 309.245 202.099C307.621 198.802 305.378 195.733 302.289 193.664C296.02 189.503 287.919 189.39 280.666 189.708C273.001 190.049 265.13 190.958 257.624 188.844C253.597 187.707 249.639 185.729 246.733 182.683C243.826 179.636 242.545 175.794 242.889 171.61C242.865 171.815 242.843 171.997 242.843 172.201C243.415 166.904 242.591 171.655 240.371 186.434C237.557 201.121 236.756 205.85 237.969 200.667C237.923 200.849 237.877 201.053 237.831 201.235C239.067 196.415 241.927 192.345 245.017 188.503C247.991 184.797 251.469 181.136 253.071 176.566C253.849 174.338 254.169 171.929 254.581 169.632C256.228 160.56 258.013 151.421 259.18 142.281C259.455 140.053 259.295 137.87 258.265 135.847C256.617 132.641 253.368 130.595 250.119 129.208C246.229 127.525 241.996 126.548 237.855 125.661C232.721 124.571 227.525 123.796 222.295 123.342C211.815 122.387 201.244 122.569 190.764 123.501C178.912 124.547 167.15 126.707 155.755 130.14C155.481 130.231 154.726 135.415 154.84 134.846C154.153 138.643 153.49 142.44 152.849 146.26C152.209 150.056 151.545 153.876 150.95 157.673C150.813 158.514 150.676 159.355 150.561 160.197C150.355 160.902 150.264 161.652 150.195 162.402Z" fill="#E1E4E5"/>
<path d="M258.584 144.143C257.272 147.836 254.764 150.955 252.303 153.983C250.14 156.667 247.885 159.351 246.113 162.31C246.113 162.31 246.136 162.31 246.136 162.333H246.09C245.699 162.975 245.354 163.618 245.009 164.283C244.043 166.233 243.375 168.274 242.915 170.385C242.915 170.431 242.892 170.499 242.892 170.545C242.869 170.82 242.846 171.256 242.777 171.876C242.478 176.028 243.744 179.858 246.642 182.909C247.192 183.48 247.776 184.016 248.391 184.515C250.278 182.129 252.004 179.606 252.993 176.739C253.775 174.491 254.097 172.059 254.511 169.742C256.168 160.59 257.962 151.368 259.136 142.147C259.159 142.055 259.159 141.94 259.159 141.849C258.998 142.606 258.768 143.386 258.584 144.143ZM258.791 143.638C258.837 143.431 258.86 143.316 258.883 143.271C258.837 143.385 258.814 143.523 258.791 143.638Z" fill="url(#paint0_linear_1122_2556)"/>
<path d="M310.606 210.423C310.583 210.492 310.583 210.538 310.56 210.606C310.583 210.492 310.606 210.401 310.628 210.287C310.628 210.332 310.628 210.378 310.606 210.423C310.628 210.287 310.674 210.15 310.697 210.036C308.796 217.337 300.202 218.341 293.924 218.706C293.763 218.706 292.87 224.114 293.007 223.43C292.961 223.703 292.915 223.954 292.87 224.228C292.915 224.251 292.984 224.274 293.03 224.296C293.007 224.319 292.984 224.342 292.961 224.342C292.915 224.365 292.87 224.411 292.824 224.434C292.2 227.915 291.589 231.398 290.99 234.884C290.349 238.695 289.685 242.528 289.089 246.339C289.02 246.818 288.447 251.107 288.401 251.107C292.251 250.879 296.307 250.674 299.767 248.848C301.233 248.073 302.585 247 303.616 245.677C305.198 243.623 305.496 241.159 305.954 238.671C307.352 231.051 308.658 223.407 309.895 215.763C310.193 213.938 310.628 212.043 310.835 210.172C310.766 210.309 310.697 210.447 310.606 210.583V210.423Z" fill="url(#paint1_linear_1122_2556)"/>
<path d="M227.505 208.139C212.312 212.732 196.455 215.028 180.575 215.483C172.658 215.71 164.718 215.437 156.87 214.505C149.731 213.641 142.477 212.368 135.658 210.003C129.709 207.957 123.394 204.047 123.966 196.93C123.943 197.135 123.92 197.317 123.92 197.521L123.783 198.408C122.204 207.707 120.603 216.983 119.024 226.282C118.818 227.282 118.795 227.442 118.955 226.782C118.909 226.964 118.864 227.169 118.818 227.351C119.985 223.19 122.731 219.803 125.407 216.506C128.039 213.277 130.762 210.026 132.638 206.297C133.599 204.365 134.309 202.501 134.766 200.409C136.093 194.316 136.963 187.949 137.992 181.811C138.839 176.809 139.937 171.716 140.372 166.646C140.716 162.69 139.571 158.961 136.894 155.983C131.334 149.799 122.41 148.093 114.424 148.071C106.073 148.071 97.6063 149.549 89.3232 147.889C85.0902 147.025 80.9716 145.274 77.9967 142.091C74.9992 138.886 72.1392 134.088 72.4594 129.564C72.4367 129.769 72.4136 129.95 72.4136 130.155C72.0707 132.383 71.7047 134.588 71.3614 136.816C69.9653 144.706 68.5924 152.618 67.1969 160.507C67.2196 160.393 67.2427 160.303 67.2654 160.189C67.2196 160.371 67.1737 160.575 67.1279 160.757C69.0274 153.482 77.6081 152.482 83.8774 152.118C84.0375 152.118 84.9301 146.729 84.7927 147.411C85.4794 143.615 86.1429 139.818 86.7833 135.998C87.4242 132.201 88.0877 128.381 88.6828 124.585C88.7513 124.107 89.3232 119.833 89.369 119.833C85.5252 120.06 81.475 120.265 78.0199 122.084C76.5554 122.857 75.2052 123.925 74.1756 125.244C72.5968 127.29 72.2993 129.745 71.8417 132.224C70.4503 139.819 69.1384 147.428 67.9062 155.051C67.4944 157.62 66.7619 160.348 66.8762 162.985C66.9678 164.895 67.6314 166.737 68.4555 168.442C70.0801 171.739 72.3224 174.808 75.4111 176.877C81.6809 181.038 89.7808 181.152 97.0344 180.833C104.7 180.492 112.571 179.583 120.076 181.697C124.103 182.834 128.062 184.812 130.968 187.859C133.874 190.905 135.155 194.748 134.812 198.931C134.835 198.726 134.857 198.544 134.857 198.34C134.286 203.637 135.109 198.886 137.329 184.107C140.143 169.42 140.944 164.691 139.731 169.874C139.777 169.693 139.823 169.488 139.869 169.306C138.633 174.126 135.773 178.196 132.684 182.038C129.709 185.744 126.232 189.405 124.63 193.975C123.852 196.202 123.531 198.613 123.119 200.909C121.472 209.981 119.687 219.121 118.52 228.26C118.245 230.488 118.406 232.671 119.436 234.695C121.083 237.9 124.332 239.946 127.581 241.333C131.471 243.016 135.704 243.994 139.846 244.88C144.98 245.971 150.176 246.745 155.405 247.199C165.885 248.154 176.456 247.972 186.936 247.04C198.789 245.994 210.55 243.834 221.945 240.401C222.22 240.31 222.975 235.127 222.86 235.695C223.547 231.898 224.21 228.101 224.851 224.281C225.492 220.485 226.155 216.665 226.75 212.868C226.888 212.027 227.025 211.186 227.139 210.344C227.345 209.64 227.436 208.889 227.505 208.139Z" fill="#E1E4E5"/>
<path d="M119.117 226.399C120.428 222.706 122.936 219.586 125.398 216.558C127.561 213.874 129.815 211.19 131.587 208.231C131.587 208.231 131.564 208.231 131.564 208.208H131.61C132.001 207.566 132.347 206.924 132.692 206.258C133.658 204.309 134.325 202.267 134.785 200.157C134.785 200.111 134.808 200.042 134.808 199.996C134.831 199.721 134.855 199.285 134.924 198.665C135.223 194.514 133.957 190.683 131.058 187.632C130.509 187.061 129.925 186.525 129.31 186.026C127.423 188.411 125.697 190.935 124.708 193.802C123.926 196.05 123.603 198.482 123.189 200.799C121.533 209.951 119.738 219.173 118.565 228.395C118.542 228.486 118.542 228.601 118.542 228.693C118.703 227.936 118.933 227.156 119.117 226.399ZM118.91 226.904C118.864 227.11 118.84 227.225 118.818 227.27C118.864 227.156 118.887 227.018 118.91 226.904Z" fill="url(#paint2_linear_1122_2556)"/>
<path d="M67.0948 160.118C67.1174 160.049 67.1174 160.004 67.1406 159.936C67.1174 160.049 67.0948 160.14 67.0716 160.255C67.0716 160.209 67.0716 160.164 67.0948 160.118C67.0716 160.255 67.0258 160.392 67.0032 160.506C68.905 153.204 77.4978 152.2 83.7768 151.835C83.9369 151.835 84.8309 146.427 84.693 147.112C84.7388 146.838 84.7846 146.587 84.8309 146.313C84.7846 146.291 84.7161 146.268 84.6703 146.245C84.693 146.222 84.7161 146.199 84.7388 146.199C84.7851 146.176 84.8309 146.131 84.8767 146.108C85.5009 142.627 86.1119 139.143 86.7096 135.658C87.3515 131.847 88.016 128.014 88.6115 124.203C88.6805 123.724 89.2534 119.434 89.2992 119.434C85.4496 119.662 81.3936 119.868 77.9332 121.693C76.4668 122.469 75.1146 123.541 74.0836 124.865C72.5024 126.918 72.2044 129.383 71.7463 131.869C70.3483 139.491 69.0425 147.135 67.8051 154.778C67.5071 156.604 67.0716 158.498 66.8652 160.369C66.9342 160.232 67.0031 160.095 67.0948 159.958V160.118Z" fill="url(#paint3_linear_1122_2556)"/>
<path d="M198.683 217.114C228.809 217.114 253.231 192.804 253.231 162.817C253.231 132.83 228.809 108.521 198.683 108.521C168.557 108.521 144.135 132.83 144.135 162.817C144.135 192.804 168.557 217.114 198.683 217.114Z" fill="#318ECC"/>
<path d="M155.886 144.416C152.428 143.253 149.431 140.776 147.681 137.6C147.187 136.723 146.783 135.717 146.916 134.721C146.95 134.517 147.002 134.277 147.185 134.183C147.35 134.088 147.573 134.14 147.759 134.193C153.534 135.743 159.64 138.357 165.702 138.081C165.979 138.078 166.257 138.055 166.499 138.162C166.796 138.286 166.986 138.56 167.119 138.852C167.578 139.802 167.975 141.6 167.825 142.67C167.641 143.943 166.405 144.128 165.318 144.402C162.223 145.185 158.972 145.455 155.886 144.416Z" fill="#F8AE9D"/>
<path d="M155.352 137.281C154.887 137.086 154.403 136.89 153.903 136.88C153.404 136.869 152.853 137.135 152.694 137.616C152.588 137.949 152.686 138.297 152.82 138.608C153.183 139.413 153.822 140.065 154.497 140.644C157.082 142.814 160.394 144.127 163.782 144.333C165.281 144.421 166.851 144.287 168.172 143.586C167.513 142.786 167.643 141.642 167.572 140.631C167.361 137.67 164.826 138.794 162.791 138.789C160.238 138.735 157.697 138.24 155.352 137.281Z" fill="#F8AE9D"/>
<path d="M232.731 115.382L232.848 115.712C233.66 118.056 234.289 120.477 234.548 122.958C235.025 127.516 234.126 132.85 230.681 136.161C226.088 140.574 218.719 141.256 212.729 140.206C210.277 139.779 207.969 138.758 206.008 137.233C204.056 138.993 201.958 140.921 200.213 142.88C196.706 141.66 193.369 140.003 190.28 137.95C182.97 141.282 175.514 143.53 167.641 145.158C166.742 142.93 166.11 140.604 165.76 138.228C165.699 137.843 170.605 134.547 171.171 134.078C172.87 132.653 176.408 129.397 176.408 129.397C176.408 129.397 171.948 125.617 169.998 123.842C167.934 121.997 165.954 120.062 164.065 118.041C162.504 116.37 160.98 114.608 160.023 112.524C159.067 110.458 158.715 108.015 159.515 105.867C162.039 99.1834 172.228 101.533 176.961 103.836C180.874 105.747 184.301 108.53 187.599 111.352C188.929 112.473 190.241 113.631 191.535 114.772C192.555 113.725 193.681 112.365 194.644 111.264C195.68 110.07 196.865 108.948 198.297 108.245C199.802 107.485 201.191 107.593 202.796 107.366C203.516 107.264 204.215 107.051 204.916 106.93C207.019 106.548 209.244 106.956 211.092 108.033C212.846 109.056 214.27 110.268 216.329 110.66C218.666 111.103 221.38 110.841 223.724 110.53C225.828 110.24 227.967 109.766 230.063 110.176C230.935 110.347 231.267 111.557 231.556 112.252C231.941 113.259 232.345 114.302 232.731 115.382ZM214.16 38.2877C214.16 38.2877 219.819 37.3916 221.339 47.3357C223.027 58.3901 227.536 56.5714 234.696 65.5479C238.881 70.7928 234.477 80.0559 225.528 79.872C216.579 79.693 208.497 77.1173 203.349 78.2194C198.201 79.3215 197.919 66.1973 202.998 62.1481C208.077 58.0988 197.248 46.4712 203.847 41.293C210.445 36.1152 214.16 38.2877 214.16 38.2877Z" fill="#31446C"/>
<path d="M247.985 82.1351C248.501 81.0796 248.47 79.8532 248.284 78.7089C247.477 73.797 244.019 69.6921 240.055 66.6844C236.078 63.6686 231.526 61.5158 227.342 58.8134C226.256 58.1097 225.168 57.3518 223.921 56.9716C222.674 56.591 221.225 56.6322 220.195 57.4324C219.469 57.994 219.049 58.8618 218.804 59.7306C218.268 61.6319 218.474 63.6455 218.8 65.5742C219.209 68.0068 219.809 70.4145 220.794 72.6503C221.583 74.4542 222.868 76.3103 224.8 76.6636C225.359 78.8193 226.509 80.8396 228.123 82.3852C229.969 84.1574 232.309 85.3161 234.738 86.1258C236.976 86.8727 239.424 87.3609 241.675 86.6634C243.01 86.2574 244.187 85.4754 245.338 84.6782C246.365 83.9985 247.43 83.255 247.985 82.1351ZM227.76 78.8596L226.439 76.7721C226.719 76.7965 226.994 76.8612 227.255 76.9641C227.98 77.2766 228.417 78.4137 227.76 78.8596Z" fill="#31446C"/>
<path d="M203.281 47.0323C203.213 47.4014 203.2 47.7883 203.226 48.2294C203.375 50.8078 203.932 53.3466 204.875 55.7525C205.452 57.1795 206.158 58.5864 207.156 59.7682C207.57 60.2587 208.04 60.7118 208.653 60.8866C209.284 61.0613 210.08 61.0862 210.706 60.9293C211.258 63.2035 211.028 67.4966 209.056 69.1094C208.452 69.5971 207.736 69.9029 207.019 70.1712C205.621 70.7078 204.166 71.1163 202.71 71.4331C201.051 71.7893 199.243 72.0562 198.078 73.2706C197.932 73.4198 197.787 73.6243 197.846 73.8259C197.885 73.9546 197.979 74.0448 198.091 74.1168C199.008 74.8579 200.143 75.264 201.276 75.6518C203.266 76.3214 205.309 76.8797 207.386 77.2531C209.556 77.6438 211.796 77.831 213.994 77.5954C215.692 77.4038 217.369 76.9733 218.91 76.2139C220.526 75.4162 222.18 74.7653 223.852 74.0035C225.266 73.3565 226.66 72.6173 228.191 72.3547C227.467 70.9848 225.958 70.2163 224.454 69.8525C222.951 69.5069 221.378 69.4757 219.857 69.1858C219.356 69.0826 218.855 68.9616 218.425 68.6549C217.247 67.8077 217.57 65.9246 217.551 64.6915L217.492 60.7901C217.666 58.9277 218.438 57.3701 219.115 55.6661C220.148 53.0544 220.361 50.0875 219.451 47.4134C218.541 44.7581 216.472 42.4512 213.813 41.5157C211.154 40.5802 207.962 41.1072 205.921 43.0526C204.626 44.3054 203.571 45.4267 203.281 47.0323Z" fill="#F8AE9D"/>
<path d="M211.458 38.735C208.808 38.4408 206.393 39.7325 204.603 41.735C203.097 43.4136 202.211 45.6293 202.256 47.8555C202.262 48.1737 202.298 48.5198 202.478 48.8059C202.957 49.4904 203.998 49.2384 204.777 48.9336C206.045 48.4454 206.99 47.7326 208.14 47.1312C209.29 46.5298 210.687 46.6176 211.716 45.7872C212.688 44.987 216.025 43.3008 216.115 41.9976C216.228 40.405 213.296 39.1037 212.071 38.8392C211.895 38.7845 211.691 38.7595 211.458 38.735Z" fill="#31446C"/>
<path d="M219.093 42.3413C221.334 43.7799 222.386 46.3004 222.503 48.9783C222.604 51.2266 221.884 53.5008 220.436 55.1986C220.229 55.441 219.982 55.6867 219.661 55.7947C218.855 56.0242 218.208 55.1741 217.799 54.4483C217.125 53.2723 216.845 52.1256 216.335 50.9362C215.826 49.7467 214.687 48.9365 214.417 47.6453C214.171 46.4136 212.655 43.0085 213.413 41.9415C214.336 40.6354 217.434 41.4711 218.553 42.0365C218.723 42.1047 218.897 42.2141 219.093 42.3413Z" fill="#31446C"/>
<path d="M199.16 72.7019C198.806 72.5416 198.382 72.6582 198.146 72.975C195.503 76.66 194.482 81.2776 193.588 85.7277C192.574 90.7873 191.672 95.8633 190.805 100.939C190.754 101.198 190.721 101.474 190.836 101.712C190.951 101.949 191.212 102.075 191.454 102.181C192.981 102.913 194.527 103.626 196.055 104.357C197.703 100.624 198.892 96.7055 199.594 92.6877C200.575 95.1582 202.346 97.3038 204.605 98.7054C202.922 101.105 200.85 105.905 198.829 108.016C198.52 108.352 196.607 107.828 196.179 107.688C195.914 108.447 197.159 107.636 197.152 108.409C198.302 108.576 199.77 107.891 200.952 107.744C202.377 107.579 203.815 107.569 205.242 107.716C207.613 107.975 209.918 108.713 212.025 109.823C213.072 110.378 214.077 111.009 215.031 111.711C215.855 112.324 217.892 113.766 217.892 113.766C218.042 113.874 218.743 113.716 218.908 113.677C219.388 113.596 219.868 113.534 220.366 113.489C221.592 113.394 222.812 113.234 224.021 113.01C226.437 112.569 228.812 111.889 231.091 110.952C231.311 110.783 230.528 109.175 230.486 108.863C230.528 109.156 235.016 108.794 235.459 108.714C237.229 108.356 239.02 108.163 240.79 107.787C239.997 100.692 237.821 93.8401 235.683 87.0429C234.847 84.3673 233.992 81.6928 232.807 79.1704C231.546 76.4829 229.917 73.9672 227.959 71.7323C227.903 71.6781 227.81 71.6425 227.736 71.6622C226.797 71.8974 221.067 73.3648 218.216 74.4203C216.764 74.9761 215.292 75.4773 213.802 75.9784C213.213 76.1713 212.605 76.3643 211.995 76.3552C211.588 76.3432 211.18 76.2573 210.79 76.1709C206.819 75.292 202.847 74.3397 199.16 72.7019Z" fill="#318ECC"/>
<path d="M225.009 86.8359C225.172 87.8459 225.391 88.8735 225.61 89.8825C226.143 92.1726 226.826 94.4255 227.655 96.6265C228.079 97.7247 228.52 98.8038 229.017 99.8828C229.266 100.413 229.515 100.943 229.782 101.473C229.915 101.728 230.048 102.002 230.182 102.258C230.296 102.477 230.429 102.678 230.543 102.878C229.747 102.854 225.82 103.079 225.008 103.147" stroke="white" stroke-width="1.376" stroke-miterlimit="10" stroke-linecap="round"/>
<path d="M224.88 103.94C224.962 104.454 225.063 104.968 225.181 105.482L225.538 107.023C225.656 107.463 225.923 108.011 225.93 108.471C225.929 108.379 222.78 108.114 222.484 108.081C219.206 107.763 215.911 107.573 212.634 107.365C210.505 107.232 208.416 107.282 206.289 107.296C205.66 107.305 204.92 107.243 204.579 106.732C204.295 106.295 204.527 105.739 204.299 105.338C204.152 105.376 202.438 105.808 202.456 105.77C202.388 106.158 202.253 106.97 201.848 107.16C201.701 107.218 201.554 107.238 201.406 107.24C201.184 107.244 200.962 107.211 200.739 107.177C200.705 107.177 200.672 107.164 200.646 107.141C200.609 107.105 200.645 107.049 200.681 106.994C201.185 106.252 201.449 105.374 201.438 104.478C201.969 104.121 202.499 103.708 202.954 103.259C203.318 102.885 203.588 102.402 203.991 102.084C204.411 101.728 204.82 101.942 205.285 102.064C205.822 102.184 206.355 102.323 206.881 102.482C207.904 102.797 208.927 103.187 209.787 103.818C210.086 104.035 210.367 104.27 210.72 104.375C211.055 104.48 211.425 104.475 211.776 104.47C213.939 104.418 216.102 104.312 218.243 104.077C220.441 103.841 221.939 103.874 224.818 103.444C224.818 103.462 224.82 103.628 224.88 103.94Z" fill="#F8AE9D"/>
<path d="M201.059 86.6313C200.544 88.8618 200.163 91.1207 199.917 93.396" stroke="white" stroke-width="1.376" stroke-miterlimit="10" stroke-linecap="round"/>
<path d="M157.446 82.9604L163.794 111.141L211.998 110.413C211.972 108.756 210.602 107.414 208.92 107.44L197.4 107.614L191.659 81.6884C191.571 81.2808 191.344 80.9162 191.016 80.6562C190.689 80.3962 190.281 80.2567 189.862 80.2613L159.205 80.725C158.041 80.761 157.188 81.8233 157.446 82.9604Z" fill="#31446C"/>
<path d="M220.416 151.816C220.193 150.531 219.563 149.215 218.971 148.064C216.532 143.352 212.173 140.03 207.477 137.745C206.993 137.513 206.508 137.281 206.006 137.104C206.044 137.159 206.082 137.213 206.12 137.287L206.12 137.305L206.139 137.305C206.083 137.269 206.045 137.233 205.989 137.197C204.092 138.901 202.067 140.772 200.339 142.658C201.481 143.579 203.139 144.328 203.962 144.941C205.907 146.366 207.78 147.884 209.797 149.215C212.507 151.034 215.394 152.353 218.62 152.93C219.863 153.15 220.514 153.38 220.499 152.423C220.478 152.276 220.457 152.073 220.416 151.816Z" fill="#F8AE9D"/>
<path d="M217.27 148.108C216.013 145.753 214.062 143.96 211.93 142.372C210.433 141.253 208.846 140.246 207.332 139.22C206.902 138.932 206.058 138.153 205.331 137.777C203.817 139.144 202.267 140.585 200.866 142.079C205.495 144.881 209.62 148.537 214.699 150.522C215.164 150.699 215.648 150.876 216.147 150.887C216.646 150.898 217.18 150.687 217.469 150.278C217.922 149.645 217.632 148.784 217.27 148.108Z" fill="#F8AE9D"/>
<path d="M282.881 165.225C277.752 166.435 272.328 162.106 272.328 162.106C272.328 162.106 275.223 155.818 280.353 154.612C285.481 153.403 290.904 157.729 290.904 157.729C290.904 157.729 288.009 164.016 282.881 165.225Z" fill="url(#paint4_linear_1122_2556)"/>
<path d="M252.246 243.73C256.791 246.847 263.736 244.669 263.736 244.669C263.736 244.669 263.305 237.438 258.757 234.324C254.211 231.207 247.27 233.383 247.27 233.383C247.27 233.383 247.7 240.614 252.246 243.73Z" fill="url(#paint5_linear_1122_2556)"/>
<path d="M44.3281 186.665C51.5176 193.949 64.9624 192.413 64.9624 192.413C64.9624 192.413 66.7413 179.068 59.5451 171.788C52.3552 164.504 38.9171 166.036 38.9171 166.036C38.9171 166.036 37.1382 179.381 44.3281 186.665Z" fill="url(#paint6_linear_1122_2556)"/>
<path d="M320.418 143.445C316.331 143.445 313.018 146.743 313.018 150.812C313.018 154.88 316.331 158.179 320.418 158.179C324.505 158.179 327.819 154.88 327.819 150.812C327.819 146.743 324.505 143.445 320.418 143.445Z" fill="#318ECC"/>
<path d="M107.987 188.16C104.505 188.16 101.682 190.97 101.682 194.435C101.682 197.901 104.505 200.711 107.987 200.711C111.469 200.711 114.292 197.901 114.292 194.435C114.292 190.97 111.469 188.16 107.987 188.16Z" fill="#318ECC"/>
<path d="M92.358 107.901C89.1789 107.901 86.6017 105.336 86.6017 102.172C86.6017 99.0072 89.1789 96.4419 92.358 96.4419C95.5371 96.4419 98.1143 99.0072 98.1143 102.172C98.1143 105.336 95.5371 107.901 92.358 107.901Z" fill="#318ECC"/>
<path d="M268.3 112.813C264.536 112.813 261.484 109.775 261.484 106.028C261.484 102.281 264.536 99.2432 268.3 99.2432C272.065 99.2432 275.117 102.281 275.117 106.028C275.117 109.775 272.065 112.813 268.3 112.813Z" fill="#318ECC"/>
<path d="M301.505 177.922C299.991 177.922 298.764 176.701 298.764 175.194C298.764 173.687 299.991 172.466 301.505 172.466C303.018 172.466 304.246 173.687 304.246 175.194C304.246 176.701 303.018 177.922 301.505 177.922Z" fill="#E1E4E5"/>
<path d="M82.1523 202.56C79.6222 202.56 77.5712 200.518 77.5712 198C77.5712 195.482 79.6222 193.44 82.1523 193.44C84.6824 193.44 86.7334 195.482 86.7334 198C86.7334 200.518 84.6824 202.56 82.1523 202.56Z" fill="#E1E4E5"/>
<path d="M303.585 119.21C301.83 119.21 300.408 117.794 300.408 116.048C300.408 114.302 301.83 112.886 303.585 112.886C305.339 112.886 306.762 114.302 306.762 116.048C306.762 117.794 305.339 119.21 303.585 119.21Z" fill="#E1E4E5"/>
<path d="M293.744 77.7924C291.065 77.7924 288.894 75.6314 288.894 72.9656C288.894 70.2997 291.065 68.1387 293.744 68.1387C296.422 68.1387 298.593 70.2997 298.593 72.9656C298.593 75.6314 296.422 77.7924 293.744 77.7924Z" fill="#E1E4E5"/>
<path d="M125.99 129.29C126.444 130.974 125.44 132.706 123.747 133.157C122.055 133.608 120.316 132.609 119.862 130.924C119.409 129.24 120.413 127.509 122.105 127.057C123.798 126.606 125.537 127.606 125.99 129.29Z" fill="#E1E4E5"/>
<path d="M63.8504 119.98C62.1851 119.98 60.8351 118.636 60.8351 116.978C60.8351 115.321 62.1851 113.977 63.8504 113.977C65.5157 113.977 66.8657 115.321 66.8657 116.978C66.8657 118.636 65.5157 119.98 63.8504 119.98Z" fill="#E1E4E5"/>
<path d="M336.907 87.7837H336.992C337.495 94.8752 342.793 94.9841 342.793 94.9841C342.793 94.9841 336.951 95.0979 336.951 103.292C336.951 95.0979 331.108 94.9841 331.108 94.9841C331.108 94.9841 336.404 94.8752 336.907 87.7837ZM261.253 51.7678H261.338C261.84 58.8593 267.139 58.9683 267.139 58.9683C267.139 58.9683 261.296 59.0821 261.296 67.2761C261.296 59.0821 255.454 58.9683 255.454 58.9683C255.454 58.9683 260.75 58.8593 261.253 51.7678ZM265.09 166.909H265.175C265.678 174.001 270.976 174.11 270.976 174.11C270.976 174.11 265.134 174.223 265.134 182.418C265.134 174.223 259.291 174.11 259.291 174.11C259.291 174.11 264.587 174.001 265.09 166.909ZM101.651 217.113H101.703C102.01 221.439 105.241 221.505 105.241 221.505C105.241 221.505 101.678 221.575 101.678 226.572C101.678 221.575 98.1143 221.505 98.1143 221.505C98.1143 221.505 101.345 221.439 101.651 217.113ZM129.68 94.3318H129.764C130.267 101.423 135.566 101.533 135.566 101.533C135.566 101.533 129.723 101.646 129.723 109.84C129.723 101.646 123.881 101.533 123.881 101.533C123.881 101.533 129.177 101.423 129.68 94.3318ZM126.297 43.0366H126.396C126.986 51.5206 133.201 51.6512 133.201 51.6512C133.201 51.6512 126.348 51.787 126.348 61.5901C126.348 51.787 119.495 51.6512 119.495 51.6512C119.495 51.6512 125.707 51.5206 126.297 43.0366Z" fill="#E1E4E5"/>
</g>
<defs>
<linearGradient id="paint0_linear_1122_2556" x1="268.367" y1="162.272" x2="224.862" y2="162.467" gradientUnits="userSpaceOnUse">
<stop stop-color="white"/>
<stop offset="1" stop-color="#EEEEEE"/>
</linearGradient>
<linearGradient id="paint1_linear_1122_2556" x1="323.412" y1="229.696" x2="263.991" y2="230.073" gradientUnits="userSpaceOnUse">
<stop stop-color="white"/>
<stop offset="1" stop-color="#EEEEEE"/>
</linearGradient>
<linearGradient id="paint2_linear_1122_2556" x1="109.333" y1="208.269" x2="152.839" y2="208.074" gradientUnits="userSpaceOnUse">
<stop stop-color="white"/>
<stop offset="1" stop-color="#EEEEEE"/>
</linearGradient>
<linearGradient id="paint3_linear_1122_2556" x1="54.2879" y1="140.845" x2="113.709" y2="140.468" gradientUnits="userSpaceOnUse">
<stop stop-color="white"/>
<stop offset="1" stop-color="#EEEEEE"/>
</linearGradient>
<linearGradient id="paint4_linear_1122_2556" x1="263.569" y1="168.232" x2="308.387" y2="146.961" gradientUnits="userSpaceOnUse">
<stop stop-color="white"/>
<stop offset="1" stop-color="#EEEEEE"/>
</linearGradient>
<linearGradient id="paint5_linear_1122_2556" x1="269.952" y1="253.956" x2="234.344" y2="216.235" gradientUnits="userSpaceOnUse">
<stop stop-color="white"/>
<stop offset="1" stop-color="#EEEEEE"/>
</linearGradient>
<linearGradient id="paint6_linear_1122_2556" x1="73.0141" y1="211.545" x2="21.3764" y2="130.225" gradientUnits="userSpaceOnUse">
<stop stop-color="white"/>
<stop offset="1" stop-color="#EEEEEE"/>
</linearGradient>
<clipPath id="clip0_1122_2556">
<rect width="434" height="288" fill="white" transform="translate(-29)"/>
</clipPath>
</defs>
</svg>
