<svg width="31" height="31" viewBox="0 0 31 31" fill="none" xmlns="http://www.w3.org/2000/svg">
<path d="M9 12.25L15.5 15.5M9 12.25V18.75L15.5 22M9 12.25L15.5 9L22 12.25M15.5 15.5L22 12.25M15.5 15.5V22M15.5 22L22 18.75V12.25M11.275 30.125C7.635 30.125 5.815 30.125 4.424 29.4165C3.201 28.7933 2.20667 27.799 1.5835 26.576C0.875 25.185 0.875 23.365 0.875 19.725M30.125 19.725C30.125 23.365 30.125 25.185 29.4165 26.576C28.7933 27.799 27.799 28.7933 26.576 29.4165C25.185 30.125 23.365 30.125 19.725 30.125M19.725 0.875C23.365 0.875 25.185 0.875 26.576 1.5835C27.799 2.20667 28.7933 3.201 29.4165 4.424C30.125 5.815 30.125 7.635 30.125 11.275M11.275 0.875C7.635 0.875 5.815 0.875 4.424 1.5835C3.201 2.20667 2.20667 3.201 1.5835 4.424C0.875 5.815 0.875 7.635 0.875 11.275" stroke="white" stroke-width="1.5" stroke-linecap="round" stroke-linejoin="round"/>
</svg>
