<?xml version="1.0" encoding="UTF-8"?>
<!DOCTYPE svg PUBLIC "-//W3C//DTD SVG 1.1//EN" "http://www.w3.org/Graphics/SVG/1.1/DTD/svg11.dtd">
<svg xmlns="http://www.w3.org/2000/svg" version="1.1" width="512px" height="512px" style="shape-rendering:geometricPrecision; text-rendering:geometricPrecision; image-rendering:optimizeQuality; fill-rule:evenodd; clip-rule:evenodd" xmlns:xlink="http://www.w3.org/1999/xlink">
<g><path style="opacity:0.969" fill="#000000" d="M 402.5,33.5 C 407.324,32.9711 411.657,34.1378 415.5,37C 435,56.5 454.5,76 474,95.5C 479.498,104.012 478.331,111.512 470.5,118C 464.985,120.238 459.651,119.905 454.5,117C 443,105.5 431.5,94 420,82.5C 419.667,127.167 419.333,171.833 419,216.5C 413.199,224.873 405.699,226.707 396.5,222C 394.383,220.269 392.883,218.102 392,215.5C 391.667,171.5 391.333,127.5 391,83.5C 379.471,95.3631 367.638,106.863 355.5,118C 343.522,121.847 336.189,117.681 333.5,105.5C 334.026,102.728 334.859,100.062 336,97.5C 356.5,77 377,56.5 397.5,36C 399.315,35.2432 400.981,34.4098 402.5,33.5 Z"/></g>
<g><path style="opacity:0.984" fill="#000000" d="M 42.5,93.5 C 123.167,93.3333 203.834,93.5 284.5,94C 293.432,99.0493 295.599,106.216 291,115.5C 289.039,118.135 286.539,119.969 283.5,121C 203.5,121.667 123.5,121.667 43.5,121C 34.4798,116.787 31.6464,109.954 35,100.5C 37.0147,97.5883 39.5147,95.255 42.5,93.5 Z"/></g>
<g><path style="opacity:0.982" fill="#000000" d="M 42.5,167.5 C 123.167,167.333 203.834,167.5 284.5,168C 293.458,173.088 295.624,180.255 291,189.5C 289.039,192.135 286.539,193.969 283.5,195C 203.167,195.667 122.833,195.667 42.5,195C 32.8577,189.071 31.0243,181.237 37,171.5C 39.0153,170.303 40.8487,168.97 42.5,167.5 Z"/></g>
<g><path style="opacity:0.984" fill="#000000" d="M 42.5,241.5 C 123.167,241.333 203.834,241.5 284.5,242C 293.117,247.188 295.284,254.354 291,263.5C 289.337,265.917 287.171,267.75 284.5,269C 203.833,269.667 123.167,269.667 42.5,269C 32.8601,263.117 31.0268,255.284 37,245.5C 39.0153,244.303 40.8487,242.97 42.5,241.5 Z"/></g>
<g><path style="opacity:0.955" fill="#000000" d="M 400.5,285.5 C 409.729,284.192 415.896,287.859 419,296.5C 419.333,340.167 419.667,383.833 420,427.5C 431.895,414.935 444.395,403.102 457.5,392C 466.053,389.862 472.219,392.695 476,400.5C 477.041,405.44 476.374,410.106 474,414.5C 453.833,434.667 433.667,454.833 413.5,475C 407.833,478.333 402.167,478.333 396.5,475C 375.638,454.472 355.138,433.638 335,412.5C 331.088,398.081 336.588,390.914 351.5,391C 353.996,392.08 356.33,393.414 358.5,395C 368.637,406.137 379.137,416.971 390,427.5C 390.333,383.833 390.667,340.167 391,296.5C 392.599,291.406 395.766,287.739 400.5,285.5 Z"/></g>
<g><path style="opacity:0.982" fill="#000000" d="M 42.5,315.5 C 122.834,315.333 203.167,315.5 283.5,316C 292.96,320.711 295.46,327.878 291,337.5C 289.337,339.917 287.171,341.75 284.5,343C 203.833,343.667 123.167,343.667 42.5,343C 33.5533,337.929 31.3867,330.762 36,321.5C 37.914,319.144 40.0807,317.144 42.5,315.5 Z"/></g>
<g><path style="opacity:0.984" fill="#000000" d="M 43.5,389.5 C 123.501,389.333 203.501,389.5 283.5,390C 293.774,395.498 295.941,403.332 290,413.5C 288.167,414.667 286.333,415.833 284.5,417C 203.833,417.667 123.167,417.667 42.5,417C 33.4993,411.993 31.3326,404.826 36,395.5C 38.1337,392.847 40.6337,390.847 43.5,389.5 Z"/></g>
</svg>
