<svg width="88" height="72" viewBox="0 0 88 72" fill="none" xmlns="http://www.w3.org/2000/svg">
<path d="M81.7143 0H56.5714C54.1319 0 51.7258 0.542176 49.5438 1.58359C47.3618 2.62501 45.4637 4.13706 44 6C42.5363 4.13706 40.6382 2.62501 38.4562 1.58359C36.2742 0.542176 33.8681 0 31.4286 0H6.28571C4.61864 0 3.01984 0.632141 1.84104 1.75736C0.662243 2.88258 0 4.4087 0 6V54C0 55.5913 0.662243 57.1174 1.84104 58.2426C3.01984 59.3679 4.61864 60 6.28571 60H31.4286C33.9292 60 36.3274 60.9482 38.0956 62.636C39.8638 64.3239 40.8571 66.6131 40.8571 69C40.8571 69.7956 41.1883 70.5587 41.7777 71.1213C42.3671 71.6839 43.1665 72 44 72C44.8335 72 45.6329 71.6839 46.2223 71.1213C46.8117 70.5587 47.1429 69.7956 47.1429 69C47.1429 66.6131 48.1362 64.3239 49.9044 62.636C51.6726 60.9482 54.0708 60 56.5714 60H81.7143C83.3814 60 84.9801 59.3679 86.159 58.2426C87.3378 57.1174 88 55.5913 88 54V6C88 4.4087 87.3378 2.88258 86.159 1.75736C84.9801 0.632141 83.3814 0 81.7143 0ZM31.4286 54H6.28571V6H31.4286C33.9292 6 36.3274 6.94821 38.0956 8.63604C39.8638 10.3239 40.8571 12.6131 40.8571 15V57C38.1396 55.048 34.8296 53.9948 31.4286 54ZM81.7143 54H56.5714C53.1704 53.9948 49.8604 55.048 47.1429 57V15C47.1429 12.6131 48.1362 10.3239 49.9044 8.63604C51.6726 6.94821 54.0708 6 56.5714 6H81.7143V54ZM56.5714 15H72.2857C73.1192 15 73.9187 15.3161 74.5081 15.8787C75.0975 16.4413 75.4286 17.2044 75.4286 18C75.4286 18.7956 75.0975 19.5587 74.5081 20.1213C73.9187 20.6839 73.1192 21 72.2857 21H56.5714C55.7379 21 54.9385 20.6839 54.3491 20.1213C53.7597 19.5587 53.4286 18.7956 53.4286 18C53.4286 17.2044 53.7597 16.4413 54.3491 15.8787C54.9385 15.3161 55.7379 15 56.5714 15ZM75.4286 30C75.4286 30.7956 75.0975 31.5587 74.5081 32.1213C73.9187 32.6839 73.1192 33 72.2857 33H56.5714C55.7379 33 54.9385 32.6839 54.3491 32.1213C53.7597 31.5587 53.4286 30.7956 53.4286 30C53.4286 29.2044 53.7597 28.4413 54.3491 27.8787C54.9385 27.3161 55.7379 27 56.5714 27H72.2857C73.1192 27 73.9187 27.3161 74.5081 27.8787C75.0975 28.4413 75.4286 29.2044 75.4286 30ZM75.4286 42C75.4286 42.7957 75.0975 43.5587 74.5081 44.1213C73.9187 44.6839 73.1192 45 72.2857 45H56.5714C55.7379 45 54.9385 44.6839 54.3491 44.1213C53.7597 43.5587 53.4286 42.7957 53.4286 42C53.4286 41.2043 53.7597 40.4413 54.3491 39.8787C54.9385 39.3161 55.7379 39 56.5714 39H72.2857C73.1192 39 73.9187 39.3161 74.5081 39.8787C75.0975 40.4413 75.4286 41.2043 75.4286 42Z" fill="white"/>
</svg>
