<svg width="30" height="25" viewBox="0 0 30 25" fill="none" xmlns="http://www.w3.org/2000/svg">
<path d="M27.6788 0.946289H19.3455C18.5369 0.946289 17.7394 1.12701 17.0162 1.47415C16.293 1.82129 15.6639 2.32531 15.1788 2.94629C14.6936 2.32531 14.0646 1.82129 13.3414 1.47415C12.6182 1.12701 11.8207 0.946289 11.0121 0.946289H2.67878C2.12625 0.946289 1.59635 1.157 1.20565 1.53208C0.814945 1.90715 0.595451 2.41586 0.595451 2.94629V18.9463C0.595451 19.4767 0.814945 19.9854 1.20565 20.3605C1.59635 20.7356 2.12625 20.9463 2.67878 20.9463H11.0121C11.8409 20.9463 12.6358 21.2624 13.2218 21.825C13.8079 22.3876 14.1371 23.1506 14.1371 23.9463C14.1371 24.2115 14.2469 24.4659 14.4422 24.6534C14.6376 24.8409 14.9025 24.9463 15.1788 24.9463C15.4551 24.9463 15.72 24.8409 15.9154 24.6534C16.1107 24.4659 16.2205 24.2115 16.2205 23.9463C16.2205 23.1506 16.5497 22.3876 17.1357 21.825C17.7218 21.2624 18.5167 20.9463 19.3455 20.9463H27.6788C28.2313 20.9463 28.7612 20.7356 29.1519 20.3605C29.5426 19.9854 29.7621 19.4767 29.7621 18.9463V2.94629C29.7621 2.41586 29.5426 1.90715 29.1519 1.53208C28.7612 1.157 28.2313 0.946289 27.6788 0.946289ZM11.0121 18.9463H2.67878V2.94629H11.0121C11.8409 2.94629 12.6358 3.26236 13.2218 3.82497C13.8079 4.38758 14.1371 5.15064 14.1371 5.94629V19.9463C13.2364 19.2956 12.1393 18.9446 11.0121 18.9463ZM27.6788 18.9463H19.3455C18.2182 18.9446 17.1212 19.2956 16.2205 19.9463V5.94629C16.2205 5.15064 16.5497 4.38758 17.1357 3.82497C17.7218 3.26236 18.5167 2.94629 19.3455 2.94629H27.6788V18.9463ZM19.3455 5.94629H24.5538C24.8301 5.94629 25.095 6.05165 25.2904 6.23918C25.4857 6.42672 25.5955 6.68107 25.5955 6.94629C25.5955 7.21151 25.4857 7.46586 25.2904 7.6534C25.095 7.84093 24.8301 7.94629 24.5538 7.94629H19.3455C19.0692 7.94629 18.8042 7.84093 18.6089 7.6534C18.4135 7.46586 18.3038 7.21151 18.3038 6.94629C18.3038 6.68107 18.4135 6.42672 18.6089 6.23918C18.8042 6.05165 19.0692 5.94629 19.3455 5.94629ZM25.5955 10.9463C25.5955 11.2115 25.4857 11.4659 25.2904 11.6534C25.095 11.8409 24.8301 11.9463 24.5538 11.9463H19.3455C19.0692 11.9463 18.8042 11.8409 18.6089 11.6534C18.4135 11.4659 18.3038 11.2115 18.3038 10.9463C18.3038 10.6811 18.4135 10.4267 18.6089 10.2392C18.8042 10.0516 19.0692 9.94629 19.3455 9.94629H24.5538C24.8301 9.94629 25.095 10.0516 25.2904 10.2392C25.4857 10.4267 25.5955 10.6811 25.5955 10.9463ZM25.5955 14.9463C25.5955 15.2115 25.4857 15.4659 25.2904 15.6534C25.095 15.8409 24.8301 15.9463 24.5538 15.9463H19.3455C19.0692 15.9463 18.8042 15.8409 18.6089 15.6534C18.4135 15.4659 18.3038 15.2115 18.3038 14.9463C18.3038 14.6811 18.4135 14.4267 18.6089 14.2392C18.8042 14.0516 19.0692 13.9463 19.3455 13.9463H24.5538C24.8301 13.9463 25.095 14.0516 25.2904 14.2392C25.4857 14.4267 25.5955 14.6811 25.5955 14.9463Z" fill="black"/>
</svg>
