<?xml version="1.0" encoding="UTF-8"?>
<!DOCTYPE svg PUBLIC "-//W3C//DTD SVG 1.1//EN" "http://www.w3.org/Graphics/SVG/1.1/DTD/svg11.dtd">
<svg xmlns="http://www.w3.org/2000/svg" version="1.1" width="512px" height="512px" style="shape-rendering:geometricPrecision; text-rendering:geometricPrecision; image-rendering:optimizeQuality; fill-rule:evenodd; clip-rule:evenodd" xmlns:xlink="http://www.w3.org/1999/xlink">
<g><path style="opacity:0.954" fill="#464747" d="M 324.5,7.5 C 359.632,4.4685 383.798,19.1352 397,51.5C 404.639,82.3552 395.805,107.188 370.5,126C 345.759,139.223 321.426,138.557 297.5,124C 273.201,103.994 265.701,78.8274 275,48.5C 284.466,26.2034 300.966,12.5367 324.5,7.5 Z M 326.5,24.5 C 339.344,22.4416 351.011,25.1083 361.5,32.5C 340.167,54.5 318.5,76.1667 296.5,97.5C 289.119,86.966 286.619,75.2994 289,62.5C 294.349,42.6518 306.849,29.9852 326.5,24.5 Z M 373.5,45.5 C 376.176,47.0263 378.009,49.3596 379,52.5C 388.367,84.9342 377.2,106.768 345.5,118C 332.945,120.234 321.279,118.067 310.5,111.5C 309.479,110.998 309.312,110.332 310,109.5C 331.368,88.2986 352.535,66.9653 373.5,45.5 Z"/></g>
<g><path style="opacity:0.954" fill="#454646" d="M 139.5,31.5 C 144.946,30.3394 149.113,32.0061 152,36.5C 174.622,77.0731 197.956,117.073 222,156.5C 224.823,155.017 227.657,153.517 230.5,152C 232.833,151.333 235.167,151.333 237.5,152C 240.295,153.793 242.795,155.96 245,158.5C 252.313,167.314 259.813,175.981 267.5,184.5C 277.05,179.532 285.55,180.865 293,188.5C 331.84,256.856 371.174,324.856 411,392.5C 414.781,389.859 418.948,388.193 423.5,387.5C 430.731,388.264 433.231,392.264 431,399.5C 430.626,400.416 430.126,401.25 429.5,402C 417.965,408.596 406.632,415.43 395.5,422.5C 399.828,431.161 404.662,439.494 410,447.5C 414.471,443.506 419.638,441.673 425.5,442C 432.995,446.838 433.328,452.172 426.5,458C 405.167,470.333 383.833,482.667 362.5,495C 351.992,496.828 348.159,492.662 351,482.5C 354.577,479.627 358.411,477.127 362.5,475C 357.374,466.582 352.374,458.082 347.5,449.5C 336.33,456.253 324.996,462.753 313.5,469C 304.284,469.777 300.784,465.61 303,456.5C 306.092,453.578 309.592,451.245 313.5,449.5C 314.583,448.635 314.749,447.635 314,446.5C 275.081,379.663 236.414,312.663 198,245.5C 193.819,234.383 196.653,225.55 206.5,219C 201.958,205.707 197.625,192.374 193.5,179C 193.542,177.033 194.042,175.199 195,173.5C 198.293,170.213 202.127,167.713 206.5,166C 182.874,125.248 159.374,84.415 136,43.5C 134.593,38.556 135.759,34.556 139.5,31.5 Z M 231.5,170.5 C 238.857,177.534 245.524,185.2 251.5,193.5C 241.998,199.419 232.331,205.086 222.5,210.5C 218.685,201.558 215.351,192.391 212.5,183C 218.869,178.82 225.202,174.654 231.5,170.5 Z M 276.5,198.5 C 277.675,198.281 278.675,198.614 279.5,199.5C 287.293,212.919 294.96,226.419 302.5,240C 294.005,244.413 285.672,249.08 277.5,254C 271.188,261.623 272.688,267.123 282,270.5C 291.94,265.696 301.607,260.362 311,254.5C 317.121,265.913 323.621,277.079 330.5,288C 321.964,293.366 313.297,298.532 304.5,303.5C 301.155,307.085 300.655,311.085 303,315.5C 305.995,318.265 309.495,319.098 313.5,318C 321.833,313.167 330.167,308.333 338.5,303.5C 345.544,314.419 352.211,325.585 358.5,337C 349.833,342 341.167,347 332.5,352C 329.197,355.795 328.697,359.962 331,364.5C 333.763,366.97 336.93,367.804 340.5,367C 346.997,363.586 353.33,359.919 359.5,356C 362.058,354.374 364.725,353.374 367.5,353C 376.707,369.248 386.04,385.415 395.5,401.5C 373.998,414.419 352.331,427.086 330.5,439.5C 290.877,372.428 251.877,304.928 213.5,237C 213.645,236.228 213.978,235.561 214.5,235C 235.394,223.059 256.061,210.892 276.5,198.5 Z M 379.5,430.5 C 384.852,438.69 389.852,447.19 394.5,456C 389.229,459.553 383.729,462.719 378,465.5C 372.47,457.616 367.303,449.449 362.5,441C 368.231,437.475 373.897,433.975 379.5,430.5 Z"/></g>
<g><path style="opacity:0.973" fill="#454646" d="M 445.5,135.5 C 475.16,132.564 494.326,145.231 503,173.5C 503.973,208.214 503.64,242.881 502,277.5C 491.924,303.212 473.091,314.379 445.5,311C 425.667,305.833 413.167,293.333 408,273.5C 407.027,238.786 407.36,204.119 409,169.5C 415.284,151.711 427.451,140.378 445.5,135.5 Z M 447.5,152.5 C 470.656,150.309 483.823,160.642 487,183.5C 487.5,194.161 487.667,204.828 487.5,215.5C 466.167,215.5 444.833,215.5 423.5,215.5C 423.333,204.828 423.5,194.161 424,183.5C 425.1,167.931 432.933,157.598 447.5,152.5 Z M 423.5,231.5 C 444.833,231.5 466.167,231.5 487.5,231.5C 487.667,242.172 487.5,252.839 487,263.5C 485.222,282.778 474.722,293.112 455.5,294.5C 436.278,293.112 425.778,282.778 424,263.5C 423.5,252.839 423.333,242.172 423.5,231.5 Z"/></g>
<g><path style="opacity:0.986" fill="#454646" d="M 37.5,215.5 C 73.5015,215.333 109.502,215.5 145.5,216C 151.365,217.511 155.532,221.011 158,226.5C 159.62,242.099 159.953,257.766 159,273.5C 156.962,281.037 152.129,285.704 144.5,287.5C 142.783,295.471 143.616,303.137 147,310.5C 154,317.5 161,324.5 168,331.5C 171.388,335.609 173.721,340.275 175,345.5C 175.667,390.167 175.667,434.833 175,479.5C 171.833,492 164,499.833 151.5,503C 111.5,503.667 71.5,503.667 31.5,503C 19,499.833 11.1667,492 8,479.5C 7.33333,434.833 7.33333,390.167 8,345.5C 9.27898,340.275 11.6123,335.609 15,331.5C 23.4031,323.767 31.0698,315.434 38,306.5C 39.5935,300.196 39.7601,293.863 38.5,287.5C 32.3164,285.834 27.8164,282.167 25,276.5C 23.8791,268.239 23.3791,259.906 23.5,251.5C 23.3791,243.094 23.8791,234.761 25,226.5C 27.708,221.079 31.8747,217.413 37.5,215.5 Z M 43.5,231.5 C 75.5017,231.333 107.502,231.5 139.5,232C 141.333,232.5 142.5,233.667 143,235.5C 143.667,246.167 143.667,256.833 143,267.5C 142.5,269.333 141.333,270.5 139.5,271C 107.5,271.667 75.5,271.667 43.5,271C 41.6667,270.5 40.5,269.333 40,267.5C 39.3333,256.833 39.3333,246.167 40,235.5C 40.6897,233.65 41.8564,232.316 43.5,231.5 Z M 55.5,287.5 C 79.5,287.5 103.5,287.5 127.5,287.5C 127.334,294.841 127.5,302.174 128,309.5C 129.279,314.725 131.612,319.391 135,323.5C 142,330.5 149,337.5 156,344.5C 157.75,347.246 158.75,350.246 159,353.5C 159.667,392.833 159.667,432.167 159,471.5C 158.553,478.566 155.053,483.399 148.5,486C 129.541,487.135 110.541,487.635 91.5,487.5C 72.4587,487.635 53.4587,487.135 34.5,486C 27.9469,483.399 24.4469,478.566 24,471.5C 23.3333,432.167 23.3333,392.833 24,353.5C 24.2503,350.246 25.2503,347.246 27,344.5C 36.7783,335.728 45.445,326.061 53,315.5C 53.6667,313.5 54.3333,311.5 55,309.5C 55.4997,302.174 55.6663,294.841 55.5,287.5 Z"/></g>
<g><path style="opacity:0.993" fill="#464747" d="M 51.5,351.5 C 75.5023,351.333 99.5023,351.5 123.5,352C 124.416,352.374 125.25,352.874 126,353.5C 127.653,388.748 127.986,424.082 127,459.5C 126.5,461.333 125.333,462.5 123.5,463C 96.8333,463.667 70.1667,463.667 43.5,463C 42.5838,462.626 41.7504,462.126 41,461.5C 39.5167,458.298 39.1834,454.964 40,451.5C 40.5,449.667 41.6667,448.5 43.5,448C 66.1642,447.5 88.8309,447.333 111.5,447.5C 111.5,420.833 111.5,394.167 111.5,367.5C 91.4972,367.667 71.4972,367.5 51.5,367C 48.484,365.471 47.1506,362.971 47.5,359.5C 47.2824,355.934 48.6157,353.268 51.5,351.5 Z"/></g>
</svg>
