<svg width="47" height="59" viewBox="0 0 47 59" fill="none" xmlns="http://www.w3.org/2000/svg">
<path d="M40.6643 58.25C42.1893 58.25 43.6518 57.6442 44.7302 56.5659C45.8085 55.4875 46.4143 54.025 46.4143 52.5V18L29.1643 0.75H6.16431C4.63931 0.75 3.17678 1.3558 2.09844 2.43414C1.02011 3.51247 0.414307 4.97501 0.414307 6.5V52.5C0.414307 54.025 1.02011 55.4875 2.09844 56.5659C3.17678 57.6442 4.63931 58.25 6.16431 58.25H40.6643ZM26.2893 6.5L40.6643 20.875H26.2893V6.5ZM9.03931 18H17.6643V23.75H9.03931V18ZM9.03931 29.5H37.7893V35.25H9.03931V29.5ZM9.03931 41H37.7893V46.75H9.03931V41Z" fill="white"/>
</svg>
