<?xml version="1.0" encoding="UTF-8"?>
<!DOCTYPE svg PUBLIC "-//W3C//DTD SVG 1.1//EN" "http://www.w3.org/Graphics/SVG/1.1/DTD/svg11.dtd">
<svg xmlns="http://www.w3.org/2000/svg" version="1.1" width="64px" height="64px" style="shape-rendering:geometricPrecision; text-rendering:geometricPrecision; image-rendering:optimizeQuality; fill-rule:evenodd; clip-rule:evenodd" xmlns:xlink="http://www.w3.org/1999/xlink">
<g><path style="opacity:0.947" fill="#000000" d="M 3.5,3.5 C 7.83333,3.5 12.1667,3.5 16.5,3.5C 16.5,4.83333 16.5,6.16667 16.5,7.5C 13.5,7.5 10.5,7.5 7.5,7.5C 7.5,10.5 7.5,13.5 7.5,16.5C 6.16667,16.5 4.83333,16.5 3.5,16.5C 3.5,12.1667 3.5,7.83333 3.5,3.5 Z"/></g>
<g><path style="opacity:0.951" fill="#000000" d="M 46.5,3.5 C 50.8333,3.5 55.1667,3.5 59.5,3.5C 59.5,7.83333 59.5,12.1667 59.5,16.5C 58.1667,16.5 56.8333,16.5 55.5,16.5C 55.5,13.5 55.5,10.5 55.5,7.5C 52.5,7.5 49.5,7.5 46.5,7.5C 46.5,6.16667 46.5,4.83333 46.5,3.5 Z"/></g>
<g><path style="opacity:0.769" fill="#000000" d="M 19.5,14.5 C 27.1788,15.0177 30.0121,19.0177 28,26.5C 23.594,30.4227 19.2606,30.4227 15,26.5C 12.8955,21.0562 14.3955,17.0562 19.5,14.5 Z M 20.5,19.5 C 23.3892,19.999 24.0558,21.499 22.5,24C 21.552,24.4828 20.552,24.6495 19.5,24.5C 19.366,22.7085 19.6993,21.0418 20.5,19.5 Z"/></g>
<g><path style="opacity:0.743" fill="#000000" d="M 38.5,21.5 C 39.4959,21.4142 40.3292,21.7476 41,22.5C 45.3333,28.8333 49.6667,35.1667 54,41.5C 53.9618,44.7058 52.4618,45.7058 49.5,44.5C 46.5547,39.5549 43.2214,34.8883 39.5,30.5C 35.0656,37.0493 30.3989,43.3826 25.5,49.5C 22.8046,46.4744 20.1379,43.4744 17.5,40.5C 15.8606,42.8061 13.8606,44.8061 11.5,46.5C 8.30526,45.1233 7.80526,43.1233 10,40.5C 12.2774,37.6009 14.7774,34.9342 17.5,32.5C 20.1722,34.6726 22.5055,37.1726 24.5,40C 25.1667,40.6667 25.8333,40.6667 26.5,40C 30.7231,33.9504 34.7231,27.7837 38.5,21.5 Z"/></g>
<g><path style="opacity:0.947" fill="#000000" d="M 3.5,46.5 C 4.83333,46.5 6.16667,46.5 7.5,46.5C 7.5,49.5 7.5,52.5 7.5,55.5C 10.5,55.5 13.5,55.5 16.5,55.5C 16.5,56.8333 16.5,58.1667 16.5,59.5C 12.1667,59.5 7.83333,59.5 3.5,59.5C 3.5,55.1667 3.5,50.8333 3.5,46.5 Z"/></g>
<g><path style="opacity:0.951" fill="#000000" d="M 55.5,46.5 C 56.8333,46.5 58.1667,46.5 59.5,46.5C 59.5,50.8333 59.5,55.1667 59.5,59.5C 55.1667,59.5 50.8333,59.5 46.5,59.5C 46.5,58.1667 46.5,56.8333 46.5,55.5C 49.5,55.5 52.5,55.5 55.5,55.5C 55.5,52.5 55.5,49.5 55.5,46.5 Z"/></g>
</svg>
