<?xml version="1.0" encoding="UTF-8"?>
<!DOCTYPE svg PUBLIC "-//W3C//DTD SVG 1.1//EN" "http://www.w3.org/Graphics/SVG/1.1/DTD/svg11.dtd">
<svg xmlns="http://www.w3.org/2000/svg" version="1.1" width="64px" height="64px" style="shape-rendering:geometricPrecision; text-rendering:geometricPrecision; image-rendering:optimizeQuality; fill-rule:evenodd; clip-rule:evenodd" xmlns:xlink="http://www.w3.org/1999/xlink">
<g><path style="opacity:0.7" fill="#000000" d="M 27.5,0.5 C 30.1873,0.33591 32.854,0.502577 35.5,1C 35.9574,1.41395 36.2907,1.91395 36.5,2.5C 42.3468,4.45699 48.3468,5.62366 54.5,6C 55,6.5 55.5,7 56,7.5C 56.8196,25.5439 56.6529,43.5439 55.5,61.5C 47.5,61.8333 39.5,62.1667 31.5,62.5C 23.1002,62.4836 14.9335,61.8169 7,60.5C 6.33333,42.8333 6.33333,25.1667 7,7.5C 7.5,7 8,6.5 8.5,6C 14.6532,5.62366 20.6532,4.45699 26.5,2.5C 26.8627,1.81654 27.1961,1.14987 27.5,0.5 Z M 29.5,4.5 C 29.62,5.58617 30.2867,6.25284 31.5,6.5C 32.7133,6.25284 33.38,5.58617 33.5,4.5C 35.4559,6.14841 37.7892,6.81507 40.5,6.5C 40.5,7.83333 40.5,9.16667 40.5,10.5C 34.5,10.5 28.5,10.5 22.5,10.5C 22.5,9.16667 22.5,7.83333 22.5,6.5C 25.2108,6.81507 27.5441,6.14841 29.5,4.5 Z M 11.5,59.5 C 9.51425,42.8662 8.84758,25.8662 9.5,8.5C 12.8333,8.5 16.1667,8.5 19.5,8.5C 19.5,10.1667 19.5,11.8333 19.5,13.5C 27.5,13.5 35.5,13.5 43.5,13.5C 43.5,11.8333 43.5,10.1667 43.5,8.5C 46.8333,8.5 50.1667,8.5 53.5,8.5C 53.8328,25.5131 53.4995,42.5131 52.5,59.5C 38.7056,60.8231 25.039,60.8231 11.5,59.5 Z M 19.5,17.5 C 21.337,17.6395 21.6704,18.3061 20.5,19.5C 19.7025,19.0431 19.3691,18.3764 19.5,17.5 Z M 41.5,17.5 C 43.337,17.6395 43.6704,18.3061 42.5,19.5C 41.7025,19.0431 41.3691,18.3764 41.5,17.5 Z M 19.5,25.5 C 21.4646,25.9483 21.7979,26.9483 20.5,28.5C 19.6143,27.675 19.281,26.675 19.5,25.5 Z M 41.5,25.5 C 43.4646,25.9483 43.7979,26.9483 42.5,28.5C 41.6143,27.675 41.281,26.675 41.5,25.5 Z M 30.5,30.5 C 32.337,30.6395 32.6704,31.3061 31.5,32.5C 30.7025,32.0431 30.3691,31.3764 30.5,30.5 Z M 19.5,34.5 C 21.4646,34.9483 21.7979,35.9483 20.5,37.5C 19.6143,36.675 19.281,35.675 19.5,34.5 Z M 26.5,34.5 C 27.7562,34.4614 28.7562,34.9614 29.5,36C 23.3798,42.2783 22.3798,41.7783 26.5,34.5 Z M 34.5,34.5 C 37.3528,35.1886 39.0194,37.022 39.5,40C 37.08,39.6284 35.08,38.2951 33.5,36C 34.056,35.6174 34.3893,35.1174 34.5,34.5 Z M 41.5,34.5 C 43.4646,34.9483 43.7979,35.9483 42.5,37.5C 41.6143,36.675 41.281,35.675 41.5,34.5 Z M 19.5,43.5 C 21.337,43.6395 21.6704,44.3061 20.5,45.5C 19.7025,45.0431 19.3691,44.3764 19.5,43.5 Z M 41.5,43.5 C 43.337,43.6395 43.6704,44.3061 42.5,45.5C 41.7025,45.0431 41.3691,44.3764 41.5,43.5 Z"/></g>
<g><path style="opacity:0.691" fill="#000000" d="M 16.5,14.5 C 19.1667,14.5 21.8333,14.5 24.5,14.5C 25.3321,18.8139 27.6655,22.1473 31.5,24.5C 35.3345,22.1473 37.6679,18.8139 38.5,14.5C 41.1667,14.5 43.8333,14.5 46.5,14.5C 46.5,17.1667 46.5,19.8333 46.5,22.5C 41.151,21.3891 36.8176,22.8891 33.5,27C 36.7031,28.6782 38.3697,27.5115 38.5,23.5C 41.1667,23.5 43.8333,23.5 46.5,23.5C 46.1065,31.9809 46.1065,40.3143 46.5,48.5C 43.8333,48.5 41.1667,48.5 38.5,48.5C 37.6679,44.1861 35.3345,40.8527 31.5,38.5C 27.6655,40.8527 25.3321,44.1861 24.5,48.5C 21.8333,48.5 19.1667,48.5 16.5,48.5C 16.8935,40.3143 16.8935,31.9809 16.5,23.5C 19.1667,23.5 21.8333,23.5 24.5,23.5C 24.6303,27.5115 26.2969,28.6782 29.5,27C 26.1824,22.8891 21.849,21.3891 16.5,22.5C 16.5,19.8333 16.5,17.1667 16.5,14.5 Z M 19.5,17.5 C 19.3691,18.3764 19.7025,19.0431 20.5,19.5C 21.6704,18.3061 21.337,17.6395 19.5,17.5 Z M 41.5,17.5 C 41.3691,18.3764 41.7025,19.0431 42.5,19.5C 43.6704,18.3061 43.337,17.6395 41.5,17.5 Z M 19.5,25.5 C 19.281,26.675 19.6143,27.675 20.5,28.5C 21.7979,26.9483 21.4646,25.9483 19.5,25.5 Z M 41.5,25.5 C 41.281,26.675 41.6143,27.675 42.5,28.5C 43.7979,26.9483 43.4646,25.9483 41.5,25.5 Z M 30.5,30.5 C 30.3691,31.3764 30.7025,32.0431 31.5,32.5C 32.6704,31.3061 32.337,30.6395 30.5,30.5 Z M 19.5,34.5 C 19.281,35.675 19.6143,36.675 20.5,37.5C 21.7979,35.9483 21.4646,34.9483 19.5,34.5 Z M 26.5,34.5 C 22.3798,41.7783 23.3798,42.2783 29.5,36C 28.7562,34.9614 27.7562,34.4614 26.5,34.5 Z M 34.5,34.5 C 34.3893,35.1174 34.056,35.6174 33.5,36C 35.08,38.2951 37.08,39.6284 39.5,40C 39.0194,37.022 37.3528,35.1886 34.5,34.5 Z M 41.5,34.5 C 41.281,35.675 41.6143,36.675 42.5,37.5C 43.7979,35.9483 43.4646,34.9483 41.5,34.5 Z M 19.5,43.5 C 19.3691,44.3764 19.7025,45.0431 20.5,45.5C 21.6704,44.3061 21.337,43.6395 19.5,43.5 Z M 41.5,43.5 C 41.3691,44.3764 41.7025,45.0431 42.5,45.5C 43.6704,44.3061 43.337,43.6395 41.5,43.5 Z"/></g>
<g><path style="opacity:0.628" fill="#000000" d="M 11.5,49.5 C 13.5,49.5 15.5,49.5 17.5,49.5C 17.5,50.5 17.5,51.5 17.5,52.5C 19.9418,52.8808 20.6085,52.2141 19.5,50.5C 22,50.1667 24.5,49.8333 27,49.5C 31.5935,51.0724 36.4268,52.239 41.5,53C 41.9574,53.414 42.2907,53.914 42.5,54.5C 37.8333,55.8333 33.1667,55.8333 28.5,54.5C 29.9989,53.0962 29.6656,52.4296 27.5,52.5C 25.3344,52.4296 25.0011,53.0962 26.5,54.5C 21.5,55.8333 16.5,55.8333 11.5,54.5C 12.5353,52.8716 12.5353,51.205 11.5,49.5 Z"/></g>
<g><path style="opacity:0.635" fill="#000000" d="M 11.5,59.5 C 11.5,58.5 11.5,57.5 11.5,56.5C 20.5,56.5 29.5,56.5 38.5,56.5C 38.5,57.5 38.5,58.5 38.5,59.5C 29.5,59.5 20.5,59.5 11.5,59.5 Z"/></g>
<g><path style="opacity:0.543" fill="#000000" d="M 41.5,56.5 C 43.9775,56.0508 45.9775,56.7175 47.5,58.5C 45.604,59.4656 43.604,59.7989 41.5,59.5C 41.5,58.5 41.5,57.5 41.5,56.5 Z"/></g>
</svg>
