<svg width="32" height="25" viewBox="0 0 32 25" fill="none" xmlns="http://www.w3.org/2000/svg">
<path d="M29.5634 3.32642H26.4384V2.32642C26.4384 1.79598 26.2189 1.28728 25.8282 0.912202C25.4375 0.53713 24.9076 0.326416 24.3551 0.326416H7.6884C7.13587 0.326416 6.60596 0.53713 6.21526 0.912202C5.82456 1.28728 5.60507 1.79598 5.60507 2.32642V3.32642H2.48007C1.92754 3.32642 1.39763 3.53713 1.00693 3.9122C0.61623 4.28728 0.396736 4.79598 0.396736 5.32642V7.32642C0.396736 8.6525 0.94547 9.92427 1.92222 10.8619C2.40586 11.3262 2.98002 11.6945 3.61193 11.9458C4.24383 12.1971 4.9211 12.3264 5.60507 12.3264H6.08033C6.69393 14.1932 7.86388 15.8464 9.44557 17.0818C11.0273 18.3172 12.9514 19.0806 14.9801 19.2777V22.3264H11.8551C11.5788 22.3264 11.3139 22.4318 11.1185 22.6193C10.9232 22.8068 10.8134 23.0612 10.8134 23.3264C10.8134 23.5916 10.9232 23.846 11.1185 24.0335C11.3139 24.2211 11.5788 24.3264 11.8551 24.3264H20.1884C20.4647 24.3264 20.7296 24.2211 20.925 24.0335C21.1203 23.846 21.2301 23.5916 21.2301 23.3264C21.2301 23.0612 21.1203 22.8068 20.925 22.6193C20.7296 22.4318 20.4647 22.3264 20.1884 22.3264H17.0634V19.2739C21.2223 18.8702 24.6728 16.0689 25.928 12.3264H26.4384C27.8197 12.3264 29.1445 11.7996 30.1213 10.8619C31.098 9.92427 31.6467 8.6525 31.6467 7.32642V5.32642C31.6467 4.79598 31.4272 4.28728 31.0365 3.9122C30.6458 3.53713 30.1159 3.32642 29.5634 3.32642ZM5.60507 10.3264C4.77627 10.3264 3.98141 10.0103 3.39536 9.44774C2.80931 8.88513 2.48007 8.12207 2.48007 7.32642V5.32642H5.60507V9.32642C5.60507 9.65975 5.622 9.99308 5.65585 10.3264H5.60507ZM24.3551 9.21392C24.3551 13.6539 20.6454 17.2939 16.0855 17.3264H16.0217C13.8116 17.3264 11.692 16.4836 10.1292 14.9833C8.56638 13.483 7.6884 11.4481 7.6884 9.32642V2.32642H24.3551V9.21392ZM29.5634 7.32642C29.5634 8.12207 29.2342 8.88513 28.6481 9.44774C28.0621 10.0103 27.2672 10.3264 26.4384 10.3264H26.3733C26.416 9.95699 26.4378 9.58561 26.4384 9.21392V5.32642H29.5634V7.32642Z" fill="black"/>
</svg>
