<?xml version="1.0" encoding="UTF-8"?>
<!DOCTYPE svg PUBLIC "-//W3C//DTD SVG 1.1//EN" "http://www.w3.org/Graphics/SVG/1.1/DTD/svg11.dtd">
<svg xmlns="http://www.w3.org/2000/svg" version="1.1" width="512px" height="512px" style="shape-rendering:geometricPrecision; text-rendering:geometricPrecision; image-rendering:optimizeQuality; fill-rule:evenodd; clip-rule:evenodd" xmlns:xlink="http://www.w3.org/1999/xlink">
<g><path style="opacity:0.994" fill="#000000" d="M -0.5,454.5 C -0.5,320.833 -0.5,187.167 -0.5,53.5C 1.97883,48.8566 5.64549,45.3566 10.5,43C 27.1667,42.3333 43.8333,42.3333 60.5,43C 65.8333,47.6667 65.8333,52.3333 60.5,57C 46.1667,57.3333 31.8333,57.6667 17.5,58C 16.3333,58.5 15.5,59.3333 15,60.5C 14.1685,189.873 14.3352,319.207 15.5,448.5C 16.0253,449.192 16.6919,449.692 17.5,450C 82.8333,450.333 148.167,450.667 213.5,451C 218.756,455.792 218.756,460.458 213.5,465C 145.833,465.667 78.1667,465.667 10.5,465C 5.64549,462.643 1.97883,459.143 -0.5,454.5 Z"/></g>
<g><path style="opacity:0.948" fill="#000000" d="M 511.5,434.5 C 511.5,439.5 511.5,444.5 511.5,449.5C 503.079,467.925 489.413,473.091 470.5,465C 449.028,444.529 427.862,423.695 407,402.5C 405.438,400.043 404.438,397.376 404,394.5C 396.319,386.652 388.486,378.985 380.5,371.5C 361.03,382.874 340.197,386.874 318,383.5C 317.667,405.167 317.333,426.833 317,448.5C 316.701,456.465 312.868,461.965 305.5,465C 283.457,465.822 261.457,465.655 239.5,464.5C 235.262,459.667 235.595,455.167 240.5,451C 259.833,450.667 279.167,450.333 298.5,450C 299.308,449.692 299.975,449.192 300.5,448.5C 301.656,425.876 301.822,403.21 301,380.5C 282.766,373.929 267.6,363.096 255.5,348C 232.5,347.667 209.5,347.333 186.5,347C 178.423,343.55 177.423,338.55 183.5,332C 203.842,331.833 224.175,331.333 244.5,330.5C 240.208,321.96 237.541,312.96 236.5,303.5C 219.497,303.667 202.497,303.5 185.5,303C 178.337,299.006 177.67,294.006 183.5,288C 200.497,287.5 217.497,287.333 234.5,287.5C 236.615,248.917 254.448,220.251 288,201.5C 288.333,169.167 288.667,136.833 289,104.5C 291.421,99.0774 295.421,95.4108 301,93.5C 301.811,82.1202 301.645,70.7869 300.5,59.5C 299.975,58.8076 299.308,58.3076 298.5,58C 228.167,57.6667 157.833,57.3333 87.5,57C 82.1774,52.3805 82.1774,47.7138 87.5,43C 160.167,42.3333 232.833,42.3333 305.5,43C 310.333,45.1667 313.833,48.6667 316,53.5C 317.381,66.7876 317.881,80.121 317.5,93.5C 368.834,93.3333 420.168,93.5 471.5,94C 477.731,95.963 481.564,100.13 483,106.5C 483.167,127.833 483.333,149.167 483.5,170.5C 483.651,192.895 483.151,215.228 482,237.5C 480.098,242.4 476.598,245.567 471.5,247C 454.17,247.5 436.837,247.667 419.5,247.5C 431.599,278.27 429.932,308.27 414.5,337.5C 421.985,345.486 429.652,353.319 437.5,361C 440.376,361.438 443.043,362.438 445.5,364C 465.667,384.167 485.833,404.333 506,424.5C 508.13,427.767 509.963,431.1 511.5,434.5 Z M 306.5,108.5 C 359.501,108.333 412.501,108.5 465.5,109C 466,109.5 466.5,110 467,110.5C 467.833,150.837 467.667,191.171 466.5,231.5C 447.535,232.82 428.535,232.82 409.5,231.5C 382.445,197.814 347.779,185.814 305.5,195.5C 305.167,181.167 304.833,166.833 304.5,152.5C 304.516,137.612 305.183,122.946 306.5,108.5 Z M 325.5,207.5 C 360.785,207.55 386.952,222.883 404,253.5C 418.533,289.151 412.366,320.651 385.5,348C 357.721,370.707 327.387,374.707 294.5,360C 261.832,340.831 247.666,312.331 252,274.5C 261.798,235.862 286.298,213.529 325.5,207.5 Z M 403.5,351.5 C 410.423,356.753 416.757,362.753 422.5,369.5C 419.5,373.167 416.167,376.5 412.5,379.5C 406.167,373.833 400.167,367.833 394.5,361.5C 398.257,358.749 401.257,355.415 403.5,351.5 Z M 436.5,378.5 C 455.465,396.965 474.299,415.632 493,434.5C 496.678,440.394 496.178,445.894 491.5,451C 486.603,453.232 481.937,452.899 477.5,450C 458.833,431.333 440.167,412.667 421.5,394C 426.703,388.965 431.703,383.798 436.5,378.5 Z"/></g>
<g><path style="opacity:0.901" fill="#000000" d="M 58.5,111.5 C 65.8409,111.334 73.1742,111.5 80.5,112C 87.6635,115.994 88.3301,120.994 82.5,127C 73.8333,127.667 65.1667,127.667 56.5,127C 50.7232,120.844 51.3899,115.677 58.5,111.5 Z"/></g>
<g><path style="opacity:0.898" fill="#000000" d="M 100.5,111.5 C 107.175,111.334 113.842,111.5 120.5,112C 127.663,115.994 128.33,120.994 122.5,127C 114.5,127.667 106.5,127.667 98.5,127C 92.7312,120.8 93.3979,115.633 100.5,111.5 Z"/></g>
<g><path style="opacity:0.928" fill="#000000" d="M 140.5,111.5 C 179.501,111.333 218.501,111.5 257.5,112C 264.663,115.994 265.33,120.994 259.5,127C 219.167,127.667 178.833,127.667 138.5,127C 132.731,120.8 133.398,115.633 140.5,111.5 Z"/></g>
<g><path style="opacity:0.928" fill="#000000" d="M 331.5,129.5 C 367.835,129.333 404.168,129.5 440.5,130C 447.987,134.606 448.321,139.606 441.5,145C 404.5,145.667 367.5,145.667 330.5,145C 325.465,141.987 324.298,137.82 327,132.5C 328.409,131.219 329.909,130.219 331.5,129.5 Z"/></g>
<g><path style="opacity:0.932" fill="#000000" d="M 57.5,155.5 C 124.501,155.333 191.501,155.5 258.5,156C 263.535,159.013 264.702,163.18 262,168.5C 261.097,169.701 259.931,170.535 258.5,171C 191.5,171.667 124.5,171.667 57.5,171C 52.4648,167.987 51.2981,163.82 54,158.5C 55.1451,157.364 56.3117,156.364 57.5,155.5 Z"/></g>
<g><path style="opacity:0.927" fill="#000000" d="M 330.5,162.5 C 367.502,162.333 404.502,162.5 441.5,163C 448.167,168 448.167,173 441.5,178C 404.5,178.667 367.5,178.667 330.5,178C 325.465,174.987 324.298,170.82 327,165.5C 328.145,164.364 329.312,163.364 330.5,162.5 Z"/></g>
<g><path style="opacity:0.911" fill="#000000" d="M 410.5,195.5 C 420.839,195.334 431.172,195.5 441.5,196C 445.723,198.995 446.889,202.829 445,207.5C 443.786,209.049 442.286,210.215 440.5,211C 430.833,211.667 421.167,211.667 411.5,211C 405.552,208.567 404.052,204.4 407,198.5C 408.145,197.364 409.312,196.364 410.5,195.5 Z"/></g>
<g><path style="opacity:0.93" fill="#000000" d="M 57.5,199.5 C 113.501,199.333 169.501,199.5 225.5,200C 230.535,203.013 231.702,207.18 229,212.5C 228.097,213.701 226.931,214.535 225.5,215C 169.5,215.667 113.5,215.667 57.5,215C 52.4648,211.987 51.2981,207.82 54,202.5C 55.1451,201.364 56.3117,200.364 57.5,199.5 Z"/></g>
<g><path style="opacity:0.924" fill="#000000" d="M 322.5,222.5 C 367.25,221.752 392.25,243.585 397.5,288C 395.212,322.281 377.546,343.948 344.5,353C 314.235,357.278 290.735,346.778 274,321.5C 270.059,315.353 268.392,308.687 269,301.5C 273.667,296.167 278.333,296.167 283,301.5C 294.192,330.348 315.025,341.848 345.5,336C 374.117,324.602 385.284,303.769 379,273.5C 370.63,251.474 354.63,239.807 331,238.5C 315.111,238.944 302.111,245.278 292,257.5C 287.835,263.665 284.335,270.165 281.5,277C 271.32,280.66 267.154,277.16 269,266.5C 278.631,241.689 296.465,227.022 322.5,222.5 Z"/></g>
<g><path style="opacity:0.931" fill="#000000" d="M 57.5,243.5 C 113.501,243.333 169.501,243.5 225.5,244C 230.535,247.013 231.702,251.18 229,256.5C 227.829,257.893 226.329,258.727 224.5,259C 169.167,259.667 113.833,259.667 58.5,259C 52.552,256.567 51.052,252.4 54,246.5C 55.1451,245.364 56.3117,244.364 57.5,243.5 Z"/></g>
<g><path style="opacity:0.965" fill="#000000" d="M 309.5,253.5 C 323.837,253.333 338.171,253.5 352.5,254C 357.833,258.667 357.833,263.333 352.5,268C 338.167,268.667 323.833,268.667 309.5,268C 304.203,263.215 304.203,258.382 309.5,253.5 Z"/></g>
<g><path style="opacity:0.92" fill="#000000" d="M 300.5,278.5 C 320.836,278.333 341.169,278.5 361.5,279C 366.535,282.013 367.702,286.18 365,291.5C 364.097,292.701 362.931,293.535 361.5,294C 341.167,294.667 320.833,294.667 300.5,294C 295.465,290.987 294.298,286.82 297,281.5C 298.145,280.364 299.312,279.364 300.5,278.5 Z"/></g>
<g><path style="opacity:0.964" fill="#000000" d="M 57.5,284.5 C 90.835,284.333 124.168,284.5 157.5,285C 161.428,286.593 163.928,289.427 165,293.5C 165.667,325.833 165.667,358.167 165,390.5C 163.928,394.573 161.428,397.407 157.5,399C 124.167,399.667 90.8333,399.667 57.5,399C 53.5721,397.407 51.0721,394.573 50,390.5C 49.3333,358.167 49.3333,325.833 50,293.5C 51.268,289.405 53.768,286.405 57.5,284.5 Z M 65.5,299.5 C 93.5,299.5 121.5,299.5 149.5,299.5C 149.5,327.833 149.5,356.167 149.5,384.5C 121.5,384.5 93.5,384.5 65.5,384.5C 65.5,356.167 65.5,327.833 65.5,299.5 Z"/></g>
<g><path style="opacity:0.919" fill="#000000" d="M 309.5,304.5 C 323.837,304.333 338.171,304.5 352.5,305C 358.577,311.55 357.577,316.55 349.5,320C 337.167,320.667 324.833,320.667 312.5,320C 304.365,316.374 303.365,311.207 309.5,304.5 Z"/></g>
<g><path style="opacity:0.939" fill="#000000" d="M 79.5,309.5 C 98.1696,309.333 116.836,309.5 135.5,310C 138.766,312.536 140.1,315.869 139.5,320C 139.437,329.197 135.104,332.197 126.5,329C 123.57,325.949 119.903,324.782 115.5,325.5C 115.5,336.833 115.5,348.167 115.5,359.5C 121.903,361.309 123.736,365.309 121,371.5C 120.167,372.333 119.333,373.167 118.5,374C 111.167,374.667 103.833,374.667 96.5,374C 91.1667,369.333 91.1667,364.667 96.5,360C 97.448,359.517 98.448,359.351 99.5,359.5C 99.5,348.167 99.5,336.833 99.5,325.5C 95.0965,324.782 91.4298,325.949 88.5,329C 79.8959,332.197 75.5626,329.197 75.5,320C 75.0405,315.762 76.3738,312.262 79.5,309.5 Z"/></g>
<g><path style="opacity:0.926" fill="#000000" d="M 186.5,374.5 C 209.836,374.333 233.169,374.5 256.5,375C 264.577,378.45 265.577,383.45 259.5,390C 234.167,390.667 208.833,390.667 183.5,390C 179.146,386.21 178.479,381.877 181.5,377C 183.315,376.243 184.981,375.41 186.5,374.5 Z"/></g>
</svg>
