<?xml version="1.0" encoding="UTF-8"?>
<!DOCTYPE svg PUBLIC "-//W3C//DTD SVG 1.1//EN" "http://www.w3.org/Graphics/SVG/1.1/DTD/svg11.dtd">
<svg xmlns="http://www.w3.org/2000/svg" version="1.1" width="512px" height="512px" style="shape-rendering:geometricPrecision; text-rendering:geometricPrecision; image-rendering:optimizeQuality; fill-rule:evenodd; clip-rule:evenodd" xmlns:xlink="http://www.w3.org/1999/xlink">
<g><path style="opacity:0.992" fill="#393e4c" d="M 251.5,-0.5 C 254.167,-0.5 256.833,-0.5 259.5,-0.5C 289.355,13.4079 319.355,27.2412 349.5,41C 351.429,44.2559 351.929,47.7559 351,51.5C 347.152,60.5258 343.318,69.5258 339.5,78.5C 334.775,88.2913 330.275,98.2913 326,108.5C 325.097,109.701 323.931,110.535 322.5,111C 277.833,111.667 233.167,111.667 188.5,111C 187.069,110.535 185.903,109.701 185,108.5C 180.725,98.2913 176.225,88.2913 171.5,78.5C 167.682,69.5258 163.848,60.5258 160,51.5C 159.071,47.7559 159.571,44.2559 161.5,41C 191.71,27.3915 221.71,13.5581 251.5,-0.5 Z"/></g>
<g><path style="opacity:1" fill="#77e5f8" d="M 253.5,16.5 C 280.047,27.1875 306.213,38.8542 332,51.5C 326.786,65.9497 320.953,80.283 314.5,94.5C 275.167,95.8333 235.833,95.8333 196.5,94.5C 189.928,80.0289 183.928,65.3623 178.5,50.5C 203.914,39.9573 228.914,28.6239 253.5,16.5 Z"/></g>
<g><path style="opacity:1" fill="#393f4d" d="M 252.5,31.5 C 256.115,31.2055 259.282,32.2055 262,34.5C 263.367,38.6996 263.867,43.0329 263.5,47.5C 267.936,47.2101 272.27,47.7101 276.5,49C 280.379,53.2976 280.379,57.631 276.5,62C 272.27,63.2899 267.936,63.7899 263.5,63.5C 263.79,67.9362 263.29,72.2695 262,76.5C 257.631,80.3789 253.298,80.3789 249,76.5C 247.71,72.2695 247.21,67.9362 247.5,63.5C 243.818,63.6653 240.152,63.4986 236.5,63C 230.741,59.1081 230.074,54.4414 234.5,49C 238.7,47.6326 243.033,47.1326 247.5,47.5C 247.335,43.8183 247.501,40.1516 248,36.5C 249.025,34.313 250.525,32.6464 252.5,31.5 Z"/></g>
<g><path style="opacity:0.999" fill="#435a6c" d="M 171.5,78.5 C 176.225,88.2913 180.725,98.2913 185,108.5C 185.903,109.701 187.069,110.535 188.5,111C 233.167,111.667 277.833,111.667 322.5,111C 323.931,110.535 325.097,109.701 326,108.5C 330.275,98.2913 334.775,88.2913 339.5,78.5C 341.5,80.1667 343.5,81.8333 345.5,83.5C 343.657,86.5637 343.157,89.8971 344,93.5C 360.947,113.065 371.113,135.732 374.5,161.5C 371.187,160.955 367.854,160.455 364.5,160C 349.833,159.667 335.167,159.333 320.5,159C 296.954,155.894 276.954,145.894 260.5,129C 257.167,127 253.833,127 250.5,129C 232.766,147.257 211.099,157.257 185.5,159C 171.167,159.333 156.833,159.667 142.5,160C 140.564,160.813 138.564,161.313 136.5,161.5C 139.888,135.73 150.054,113.063 167,93.5C 167.843,89.8971 167.343,86.5637 165.5,83.5C 167.5,81.8333 169.5,80.1667 171.5,78.5 Z"/></g>
<g><path style="opacity:0.997" fill="#393e4c" d="M 165.5,83.5 C 167.343,86.5637 167.843,89.8971 167,93.5C 150.054,113.063 139.888,135.73 136.5,161.5C 138.564,161.313 140.564,160.813 142.5,160C 156.833,159.667 171.167,159.333 185.5,159C 211.099,157.257 232.766,147.257 250.5,129C 253.833,127 257.167,127 260.5,129C 276.954,145.894 296.954,155.894 320.5,159C 335.167,159.333 349.833,159.667 364.5,160C 367.854,160.455 371.187,160.955 374.5,161.5C 371.113,135.732 360.947,113.065 344,93.5C 343.157,89.8971 343.657,86.5637 345.5,83.5C 348.905,81.8988 352.238,81.7321 355.5,83C 378.378,107.941 390.545,137.441 392,171.5C 408.421,188.276 412.088,207.61 403,229.5C 400.298,234.893 396.631,239.559 392,243.5C 391.983,270.92 391.316,298.253 390,325.5C 389.25,326.126 388.416,326.626 387.5,327C 372.833,327.333 358.167,327.667 343.5,328C 366.833,338.333 390.167,348.667 413.5,359C 436.277,372.02 450.11,391.52 455,417.5C 455.667,447.5 455.667,477.5 455,507.5C 454.31,509.35 453.144,510.684 451.5,511.5C 320.833,511.5 190.167,511.5 59.5,511.5C 57.8564,510.684 56.6897,509.35 56,507.5C 55.3333,477.5 55.3333,447.5 56,417.5C 60.8897,391.52 74.723,372.02 97.5,359C 120.833,348.667 144.167,338.333 167.5,328C 152.833,327.667 138.167,327.333 123.5,327C 122.584,326.626 121.75,326.126 121,325.5C 119.684,298.253 119.017,270.92 119,243.5C 102.579,226.724 98.9125,207.39 108,185.5C 110.702,180.107 114.369,175.441 119,171.5C 120.455,137.441 132.622,107.941 155.5,83C 158.762,81.7321 162.095,81.8988 165.5,83.5 Z"/></g>
<g><path style="opacity:1" fill="#fee1db" d="M 254.5,146.5 C 273.134,161.671 294.467,171.171 318.5,175C 326.827,175.5 335.16,175.666 343.5,175.5C 343.667,197.503 343.5,219.503 343,241.5C 333.634,290.367 304.134,316.367 254.5,319.5C 206.398,315.568 177.564,289.901 168,242.5C 167.5,220.169 167.333,197.836 167.5,175.5C 192.778,176.907 216.445,171.407 238.5,159C 244.446,155.538 249.78,151.371 254.5,146.5 Z"/></g>
<g><path style="opacity:1" fill="#f6c6c5" d="M 144.5,175.5 C 146.833,175.5 149.167,175.5 151.5,175.5C 151.5,196.833 151.5,218.167 151.5,239.5C 128.697,236.604 118.197,223.604 120,200.5C 123.683,187.651 131.85,179.318 144.5,175.5 Z"/></g>
<g><path style="opacity:1" fill="#f7c6c5" d="M 359.5,175.5 C 382.33,178.478 392.83,191.478 391,214.5C 386.264,230.116 375.764,238.449 359.5,239.5C 359.5,218.167 359.5,196.833 359.5,175.5 Z"/></g>
<g><path style="opacity:1" fill="#3b404e" d="M 220.5,199.5 C 225.28,198.641 228.78,200.308 231,204.5C 231.667,211.5 231.667,218.5 231,225.5C 230.018,229.624 227.352,231.624 223,231.5C 219.112,231.277 216.779,229.277 216,225.5C 215.333,218.5 215.333,211.5 216,204.5C 217.025,202.313 218.525,200.646 220.5,199.5 Z"/></g>
<g><path style="opacity:1" fill="#3b404e" d="M 284.5,199.5 C 289.28,198.641 292.78,200.308 295,204.5C 295.667,211.5 295.667,218.5 295,225.5C 294.018,229.624 291.352,231.624 287,231.5C 283.112,231.277 280.779,229.277 280,225.5C 279.333,218.5 279.333,211.5 280,204.5C 281.025,202.313 282.525,200.646 284.5,199.5 Z"/></g>
<g><path style="opacity:1" fill="#435a6c" d="M 135.5,253.5 C 141.711,255.101 148.044,255.768 154.5,255.5C 160.091,277.515 171.425,296.015 188.5,311C 170.836,311.5 153.17,311.667 135.5,311.5C 135.5,292.167 135.5,272.833 135.5,253.5 Z"/></g>
<g><path style="opacity:1" fill="#435a6c" d="M 373.5,252.5 C 375.488,271.805 376.154,291.472 375.5,311.5C 357.83,311.667 340.164,311.5 322.5,311C 339.575,296.015 350.909,277.515 356.5,255.5C 360.182,255.665 363.848,255.499 367.5,255C 369.852,254.76 371.852,253.927 373.5,252.5 Z"/></g>
<g><path style="opacity:1" fill="#3c404e" d="M 220.5,263.5 C 222.527,263.338 224.527,263.505 226.5,264C 241.155,277.855 257.488,280.189 275.5,271C 278.128,269.374 280.461,267.374 282.5,265C 293,262.167 296.833,266 294,276.5C 280.36,289.268 264.194,294.434 245.5,292C 234.458,289.564 224.958,284.397 217,276.5C 214.348,271.039 215.514,266.706 220.5,263.5 Z"/></g>
<g><path style="opacity:1" fill="#f6c6c5" d="M 222.5,331.5 C 222.735,330.903 223.235,330.57 224,330.5C 233.532,333.95 243.365,335.616 253.5,335.5C 265.397,335.221 277.064,333.721 288.5,331C 277.58,350.173 266.913,369.506 256.5,389C 255.551,389.617 254.718,389.451 254,388.5C 243.98,369.116 233.48,350.116 222.5,331.5 Z"/></g>
<g><path style="opacity:1" fill="#4ecade" d="M 204.5,333.5 C 206.074,333.937 207.241,334.937 208,336.5C 219.833,358.333 231.667,380.167 243.5,402C 231.736,406.386 219.736,409.886 207.5,412.5C 207.956,401.064 207.456,389.731 206,378.5C 195.574,373.705 185.074,369.038 174.5,364.5C 184.521,354.146 194.521,343.813 204.5,333.5 Z"/></g>
<g><path style="opacity:1" fill="#4ecade" d="M 304.5,333.5 C 315.76,343.091 326.427,353.425 336.5,364.5C 325.833,368.885 315.333,373.552 305,378.5C 303.544,389.731 303.044,401.064 303.5,412.5C 291.205,409.9 279.205,406.4 267.5,402C 280.24,379.352 292.573,356.519 304.5,333.5 Z"/></g>
<g><path style="opacity:1" fill="#77e5f8" d="M 167.5,345.5 C 168.239,345.369 168.906,345.536 169.5,346C 164,351.5 158.5,357 153,362.5C 150.521,367.704 151.688,371.87 156.5,375C 167.873,379.402 179.206,383.902 190.5,388.5C 191.333,400.82 191.833,413.153 192,425.5C 192.779,429.277 195.112,431.277 199,431.5C 217.924,426.47 236.757,421.136 255.5,415.5C 272.814,420.772 290.147,425.938 307.5,431C 313.15,432.758 316.983,430.924 319,425.5C 319.167,413.153 319.667,400.82 320.5,388.5C 331.721,383.723 343.054,379.223 354.5,375C 359.312,371.87 360.479,367.704 358,362.5C 351.957,356.989 346.791,351.323 342.5,345.5C 364.96,355.376 387.293,365.543 409.5,376C 425.448,386.717 435.282,401.55 439,420.5C 439.5,445.498 439.667,470.498 439.5,495.5C 423.5,495.5 407.5,495.5 391.5,495.5C 391.666,486.494 391.5,477.494 391,468.5C 387.911,463.695 383.744,462.528 378.5,465C 377.299,465.903 376.465,467.069 376,468.5C 375.5,477.494 375.334,486.494 375.5,495.5C 295.5,495.5 215.5,495.5 135.5,495.5C 135.666,486.494 135.5,477.494 135,468.5C 131.911,463.695 127.744,462.528 122.5,465C 121.299,465.903 120.465,467.069 120,468.5C 119.5,477.494 119.334,486.494 119.5,495.5C 103.5,495.5 87.5,495.5 71.5,495.5C 71.3334,470.498 71.5,445.498 72,420.5C 75.8092,400.035 86.6426,384.535 104.5,374C 125.644,364.574 146.644,355.074 167.5,345.5 Z"/></g>
<g><path style="opacity:1" fill="#3b4351" d="M 252.5,439.5 C 263.167,440.003 265.833,444.836 260.5,454C 251.395,457.205 247.228,454.038 248,444.5C 249.025,442.313 250.525,440.646 252.5,439.5 Z"/></g>
<g><path style="opacity:1" fill="#3b4351" d="M 252.5,471.5 C 263.167,472.003 265.833,476.836 260.5,486C 251.395,489.205 247.228,486.038 248,476.5C 249.025,474.313 250.525,472.646 252.5,471.5 Z"/></g>
</svg>
