<?xml version="1.0" encoding="UTF-8"?>
<!DOCTYPE svg PUBLIC "-//W3C//DTD SVG 1.1//EN" "http://www.w3.org/Graphics/SVG/1.1/DTD/svg11.dtd">
<svg xmlns="http://www.w3.org/2000/svg" version="1.1" width="512px" height="512px" style="shape-rendering:geometricPrecision; text-rendering:geometricPrecision; image-rendering:optimizeQuality; fill-rule:evenodd; clip-rule:evenodd" xmlns:xlink="http://www.w3.org/1999/xlink">
<g><path style="opacity:0.981" fill="#030202" d="M 164.5,-0.5 C 209.5,-0.5 254.5,-0.5 299.5,-0.5C 351.421,8.91812 383.921,39.2515 397,90.5C 398.624,98.7761 399.291,107.109 399,115.5C 398.137,119.518 395.637,121.518 391.5,121.5C 388.042,120.892 385.542,118.892 384,115.5C 381.375,63.7202 355.209,30.7202 305.5,16.5C 302.161,16.1103 298.827,15.6103 295.5,15C 252.5,14.3333 209.5,14.3333 166.5,15C 128.801,21.5982 102.301,42.4316 87,77.5C 84.3659,85.005 82.3659,92.6717 81,100.5C 80.3333,120.5 80.3333,140.5 81,160.5C 82.0674,159.809 83.2341,159.309 84.5,159C 97.5,158.667 110.5,158.333 123.5,158C 134.605,155.114 144.605,150.114 153.5,143C 167.935,129.911 180.102,115.078 190,98.5C 189.485,85.8558 189.485,73.1891 190,60.5C 190.976,52.507 195.143,50.007 202.5,53C 203.701,53.9025 204.535,55.0692 205,56.5C 204.179,71.4963 204.512,86.4963 206,101.5C 212.637,121.802 226.471,133.968 247.5,138C 255.833,138.667 264.167,138.667 272.5,138C 273.938,137.781 275.271,137.281 276.5,136.5C 269.749,117.406 267.249,97.7389 269,77.5C 271.435,72.7762 275.269,71.2762 280.5,73C 281.333,73.8333 282.167,74.6667 283,75.5C 282.832,91.3087 284.165,106.975 287,122.5C 291.972,142.473 304.472,154.639 324.5,159C 338.502,159.333 352.502,159.167 366.5,158.5C 371.537,158.413 376.537,158.746 381.5,159.5C 382.209,160.404 383.209,160.737 384.5,160.5C 384.5,155.833 384.5,151.167 384.5,146.5C 385.643,143.018 387.976,141.018 391.5,140.5C 395.606,140.482 398.106,142.482 399,146.5C 399.167,200.503 399.667,254.503 400.5,308.5C 441.858,298.449 474.692,310.783 499,345.5C 505.272,356.16 509.439,367.493 511.5,379.5C 511.5,387.5 511.5,395.5 511.5,403.5C 506.303,432.531 490.803,454.198 465,468.5C 465.603,480.446 465.603,492.446 465,504.5C 464.867,507.404 463.7,509.738 461.5,511.5C 458.5,511.5 455.5,511.5 452.5,511.5C 450.15,509.787 449.15,507.453 449.5,504.5C 449.5,494.5 449.5,484.5 449.5,474.5C 440.274,476.377 430.94,477.377 421.5,477.5C 408.855,477.005 396.855,474.005 385.5,468.5C 366.658,457.708 352.991,442.208 344.5,422C 339.845,421.501 335.179,421.334 330.5,421.5C 330.5,427.5 330.5,433.5 330.5,439.5C 328.589,457.836 318.589,468.669 300.5,472C 254.167,472.667 207.833,472.667 161.5,472C 147.44,468.274 138.274,459.441 134,445.5C 133.5,437.507 133.334,429.507 133.5,421.5C 108.498,421.333 83.4978,421.5 58.5,422C 35.1166,427.05 20.6166,441.217 15,464.5C 14.173,478.006 14.3396,491.34 15.5,504.5C 14.9109,507.276 13.5776,509.61 11.5,511.5C 8.83333,511.5 6.16667,511.5 3.5,511.5C 1.83333,510.5 0.5,509.167 -0.5,507.5C -0.5,492.167 -0.5,476.833 -0.5,461.5C 9.29848,424.081 33.6318,405.748 72.5,406.5C 105.168,406.667 137.835,406.5 170.5,406C 172.333,405.5 173.5,404.333 174,402.5C 174.667,383.833 174.667,365.167 174,346.5C 139.64,331.788 117.307,306.455 107,270.5C 105.423,264.938 104.59,259.272 104.5,253.5C 95.3502,252.618 87.5169,248.951 81,242.5C 80.6667,288.833 80.3333,335.167 80,381.5C 78.2926,384.59 75.7926,386.59 72.5,387.5C 68.5609,386.728 66.0609,384.395 65,380.5C 64.3333,290.167 64.3333,199.833 65,109.5C 68.5099,62.0237 91.6766,28.1903 134.5,8C 144.356,4.20663 154.356,1.3733 164.5,-0.5 Z"/></g>
<g><path style="opacity:1" fill="#d67e49" d="M 305.5,16.5 C 339.851,35.0432 360.018,63.7099 366,102.5C 366.5,121.164 366.667,139.83 366.5,158.5C 352.502,159.167 338.502,159.333 324.5,159C 304.472,154.639 291.972,142.473 287,122.5C 284.165,106.975 282.832,91.3087 283,75.5C 282.167,74.6667 281.333,73.8333 280.5,73C 275.269,71.2762 271.435,72.7762 269,77.5C 267.249,97.7389 269.749,117.406 276.5,136.5C 275.271,137.281 273.938,137.781 272.5,138C 264.167,138.667 255.833,138.667 247.5,138C 226.471,133.968 212.637,121.802 206,101.5C 204.512,86.4963 204.179,71.4963 205,56.5C 204.535,55.0692 203.701,53.9025 202.5,53C 195.143,50.007 190.976,52.507 190,60.5C 189.485,73.1891 189.485,85.8558 190,98.5C 180.102,115.078 167.935,129.911 153.5,143C 144.605,150.114 134.605,155.114 123.5,158C 110.5,158.333 97.5,158.667 84.5,159C 83.2341,159.309 82.0674,159.809 81,160.5C 80.3333,140.5 80.3333,120.5 81,100.5C 82.3659,92.6717 84.3659,85.005 87,77.5C 102.301,42.4316 128.801,21.5982 166.5,15C 209.5,14.3333 252.5,14.3333 295.5,15C 298.827,15.6103 302.161,16.1103 305.5,16.5 Z"/></g>
<g><path style="opacity:1" fill="#c56b35" d="M 305.5,16.5 C 355.209,30.7202 381.375,63.7202 384,115.5C 385.542,118.892 388.042,120.892 391.5,121.5C 391.5,127.833 391.5,134.167 391.5,140.5C 387.976,141.018 385.643,143.018 384.5,146.5C 384.135,151.094 383.135,155.427 381.5,159.5C 376.537,158.746 371.537,158.413 366.5,158.5C 366.667,139.83 366.5,121.164 366,102.5C 360.018,63.7099 339.851,35.0432 305.5,16.5 Z"/></g>
<g><path style="opacity:1" fill="#fedece" d="M 327.5,174.5 C 327.667,201.502 327.5,228.502 327,255.5C 323.984,284.497 310.818,307.664 287.5,325C 279.332,330.252 270.999,335.252 262.5,340C 260.623,342.251 259.123,344.751 258,347.5C 257.333,366.167 257.333,384.833 258,403.5C 259.406,408.573 262.572,412.073 267.5,414C 271.486,414.499 275.486,414.666 279.5,414.5C 283.587,418.709 288.587,421.042 294.5,421.5C 295.568,422.434 296.901,422.768 298.5,422.5C 299.402,432.48 298.236,442.147 295,451.5C 293.954,453.09 292.787,454.59 291.5,456C 248.835,456.5 206.168,456.667 163.5,456.5C 156.352,454.857 151.518,450.523 149,443.5C 148.5,436.174 148.334,428.841 148.5,421.5C 156.84,421.666 165.173,421.5 173.5,421C 181.739,418.427 186.905,412.927 189,404.5C 189.5,386.17 189.667,367.836 189.5,349.5C 208.836,349.667 228.17,349.5 247.5,349C 252.143,346.928 253.643,343.428 252,338.5C 251.5,336.667 250.333,335.5 248.5,335C 226.5,334.667 204.5,334.333 182.5,334C 157.204,323.367 138.37,305.867 126,281.5C 124.023,276.255 122.356,270.922 121,265.5C 119.564,234.863 119.064,204.196 119.5,173.5C 142.508,169.746 161.675,159.079 177,141.5C 183.714,133.788 190.047,125.788 196,117.5C 207.734,138.965 225.9,150.798 250.5,153C 261.9,153.633 273.233,153.299 284.5,152C 295.871,165.074 310.204,172.574 327.5,174.5 Z"/></g>
<g><path style="opacity:1" fill="#452512" d="M 384.5,146.5 C 384.5,151.167 384.5,155.833 384.5,160.5C 383.209,160.737 382.209,160.404 381.5,159.5C 383.135,155.427 384.135,151.094 384.5,146.5 Z"/></g>
<g><path style="opacity:1" fill="#fcdccd" d="M 86.5,174.5 C 88.1667,174.5 89.8333,174.5 91.5,174.5C 91.5,193.5 91.5,212.5 91.5,231.5C 85.9953,227.174 82.4953,221.507 81,214.5C 80.3333,202.833 80.3333,191.167 81,179.5C 82.0757,176.921 83.909,175.254 86.5,174.5 Z"/></g>
<g><path style="opacity:1" fill="#fcccbd" d="M 86.5,174.5 C 92.31,173.51 98.31,173.177 104.5,173.5C 104.5,195.167 104.5,216.833 104.5,238.5C 99.404,237.454 95.0707,235.121 91.5,231.5C 91.5,212.5 91.5,193.5 91.5,174.5C 89.8333,174.5 88.1667,174.5 86.5,174.5 Z"/></g>
<g><path style="opacity:1" fill="#fdccbe" d="M 327.5,174.5 C 333.167,174.5 338.833,174.5 344.5,174.5C 344.667,203.502 344.5,232.502 344,261.5C 338.491,287.704 324.658,308.204 302.5,323C 294.779,327.527 286.779,331.527 278.5,335C 276.951,336.214 275.785,337.714 275,339.5C 274.333,361.167 274.333,382.833 275,404.5C 276.254,408.004 277.754,411.337 279.5,414.5C 275.486,414.666 271.486,414.499 267.5,414C 262.572,412.073 259.406,408.573 258,403.5C 257.333,384.833 257.333,366.167 258,347.5C 259.123,344.751 260.623,342.251 262.5,340C 270.999,335.252 279.332,330.252 287.5,325C 310.818,307.664 323.984,284.497 327,255.5C 327.5,228.502 327.667,201.502 327.5,174.5 Z"/></g>
<g><path style="opacity:1" fill="#b69e93" d="M 360.5,173.5 C 360.5,193.833 360.5,214.167 360.5,234.5C 360.285,236.179 360.952,237.179 362.5,237.5C 361.791,238.404 360.791,238.737 359.5,238.5C 359.169,216.66 359.503,194.994 360.5,173.5 Z"/></g>
<g><path style="opacity:1" fill="#fedece" d="M 360.5,173.5 C 363.167,173.5 365.833,173.5 368.5,173.5C 369.594,175.359 370.427,177.359 371,179.5C 371.667,190.833 371.667,202.167 371,213.5C 369.59,221.653 366.09,228.653 360.5,234.5C 360.5,214.167 360.5,193.833 360.5,173.5 Z"/></g>
<g><path style="opacity:1" fill="#fcccbd" d="M 368.5,173.5 C 374.801,172.314 379.634,174.314 383,179.5C 383.667,191.5 383.667,203.5 383,215.5C 379.748,226.249 372.915,233.583 362.5,237.5C 360.952,237.179 360.285,236.179 360.5,234.5C 366.09,228.653 369.59,221.653 371,213.5C 371.667,202.167 371.667,190.833 371,179.5C 370.427,177.359 369.594,175.359 368.5,173.5 Z"/></g>
<g><path style="opacity:1" fill="#0a0908" d="M 158.5,186.5 C 160.857,186.337 163.19,186.503 165.5,187C 167.333,187.5 168.5,188.667 169,190.5C 169.667,198.167 169.667,205.833 169,213.5C 166.487,217.212 162.987,218.378 158.5,217C 156.951,215.786 155.785,214.286 155,212.5C 154.333,205.5 154.333,198.5 155,191.5C 155.997,189.677 157.164,188.01 158.5,186.5 Z"/></g>
<g><path style="opacity:1" fill="#070605" d="M 298.5,186.5 C 303.439,185.352 306.939,187.019 309,191.5C 309.667,198.5 309.667,205.5 309,212.5C 306.928,217.143 303.428,218.643 298.5,217C 296.667,216.5 295.5,215.333 295,213.5C 294.333,205.833 294.333,198.167 295,190.5C 295.69,188.65 296.856,187.316 298.5,186.5 Z"/></g>
<g><path style="opacity:1" fill="#3c2010" d="M 382.5,243.5 C 382.56,242.957 382.893,242.624 383.5,242.5C 384.829,266.997 384.829,291.33 383.5,315.5C 383.831,291.328 383.498,267.328 382.5,243.5 Z"/></g>
<g><path style="opacity:0.999" fill="#d67e49" d="M 72.5,406.5 C 72.5,400.167 72.5,393.833 72.5,387.5C 75.7926,386.59 78.2926,384.59 80,381.5C 80.3333,335.167 80.6667,288.833 81,242.5C 87.5169,248.951 95.3502,252.618 104.5,253.5C 104.59,259.272 105.423,264.938 107,270.5C 117.307,306.455 139.64,331.788 174,346.5C 174.667,365.167 174.667,383.833 174,402.5C 173.5,404.333 172.333,405.5 170.5,406C 137.835,406.5 105.168,406.667 72.5,406.5 Z"/></g>
<g><path style="opacity:1" fill="#c76c35" d="M 382.5,243.5 C 383.498,267.328 383.831,291.328 383.5,315.5C 377.695,319.242 372.029,323.242 366.5,327.5C 366.5,302.5 366.5,277.5 366.5,252.5C 372.283,250.403 377.616,247.403 382.5,243.5 Z"/></g>
<g><path style="opacity:1" fill="#d57e49" d="M 366.5,252.5 C 366.5,277.5 366.5,302.5 366.5,327.5C 345.21,348.365 336.21,373.698 339.5,403.5C 339.5,404.5 339.5,405.5 339.5,406.5C 324.833,406.5 310.167,406.5 295.5,406.5C 292.981,406.152 291.147,404.819 290,402.5C 289.333,383.833 289.333,365.167 290,346.5C 323.896,332.272 346.229,307.606 357,272.5C 358.321,266.222 359.154,259.888 359.5,253.5C 361.861,253.326 364.194,252.993 366.5,252.5 Z"/></g>
<g><path style="opacity:1" fill="#050504" d="M 219.5,263.5 C 230.628,262.921 241.628,263.755 252.5,266C 257.741,270.204 257.741,274.537 252.5,279C 238.827,278.424 225.16,278.424 211.5,279C 206.274,274.585 206.274,270.251 211.5,266C 214.251,265.057 216.917,264.224 219.5,263.5 Z"/></g>
<g><path style="opacity:1" fill="#6ad7e5" d="M 437.5,321.5 C 477.649,348.692 488.149,384.692 469,429.5C 466.333,433.5 463.667,437.5 461,441.5C 454.013,449.023 446.513,455.69 438.5,461.5C 402.775,465.906 376.609,452.239 360,420.5C 346.417,382.983 355.917,352.816 388.5,330C 403.783,320.909 420.116,318.076 437.5,321.5 Z"/></g>
<g><path style="opacity:1" fill="#2ecedf" d="M 437.5,321.5 C 473.573,329.908 493.239,352.574 496.5,389.5C 494.442,427.546 475.109,451.546 438.5,461.5C 446.513,455.69 454.013,449.023 461,441.5C 463.667,437.5 466.333,433.5 469,429.5C 488.149,384.692 477.649,348.692 437.5,321.5 Z"/></g>
<g><path style="opacity:1" fill="#030506" d="M 422.5,344.5 C 426.426,344.047 429.592,345.38 432,348.5C 432.5,360.162 432.667,371.829 432.5,383.5C 443.838,383.333 455.172,383.5 466.5,384C 471.689,386.913 472.856,391.08 470,396.5C 469.25,397.126 468.416,397.626 467.5,398C 455.838,398.5 444.171,398.667 432.5,398.5C 432.667,410.171 432.5,421.838 432,433.5C 428.757,438.949 424.59,439.782 419.5,436C 418.809,434.933 418.309,433.766 418,432.5C 417.5,421.172 417.333,409.838 417.5,398.5C 405.829,398.667 394.162,398.5 382.5,398C 378.304,395.019 377.471,391.186 380,386.5C 380.903,385.299 382.069,384.465 383.5,384C 394.828,383.5 406.162,383.333 417.5,383.5C 417.333,372.162 417.5,360.828 418,349.5C 419.025,347.313 420.525,345.646 422.5,344.5 Z"/></g>
<g><path style="opacity:1" fill="#2d1a10" d="M 339.5,403.5 C 340.434,404.568 340.768,405.901 340.5,407.5C 325.324,407.829 310.324,407.496 295.5,406.5C 310.167,406.5 324.833,406.5 339.5,406.5C 339.5,405.5 339.5,404.5 339.5,403.5 Z"/></g>
<g><path style="opacity:0.99" fill="#aba5d5" d="M 330.5,439.5 C 331.319,436.695 331.819,433.695 332,430.5C 344.123,451.15 361.956,463.816 385.5,468.5C 396.855,474.005 408.855,477.005 421.5,477.5C 421.5,486.5 421.5,495.5 421.5,504.5C 286.167,504.5 150.833,504.5 15.5,504.5C 14.3396,491.34 14.173,478.006 15,464.5C 20.6166,441.217 35.1166,427.05 58.5,422C 83.4978,421.5 108.498,421.333 133.5,421.5C 133.334,429.507 133.5,437.507 134,445.5C 138.274,459.441 147.44,468.274 161.5,472C 207.833,472.667 254.167,472.667 300.5,472C 318.589,468.669 328.589,457.836 330.5,439.5 Z"/></g>
<g><path style="opacity:1" fill="#eec2b4" d="M 294.5,421.5 C 301.5,421.5 308.5,421.5 315.5,421.5C 315.87,429.903 315.37,438.236 314,446.5C 310.842,452.327 306.008,455.827 299.5,457C 253.998,457.831 208.665,457.665 163.5,456.5C 206.168,456.667 248.835,456.5 291.5,456C 292.787,454.59 293.954,453.09 295,451.5C 298.236,442.147 299.402,432.48 298.5,422.5C 296.901,422.768 295.568,422.434 294.5,421.5 Z"/></g>
<g><path style="opacity:1" fill="#948bc6" d="M 385.5,468.5 C 361.956,463.816 344.123,451.15 332,430.5C 331.819,433.695 331.319,436.695 330.5,439.5C 330.5,433.5 330.5,427.5 330.5,421.5C 335.179,421.334 339.845,421.501 344.5,422C 352.991,442.208 366.658,457.708 385.5,468.5 Z"/></g>
<g><path style="opacity:1" fill="#968dca" d="M 449.5,504.5 C 440.167,504.5 430.833,504.5 421.5,504.5C 421.5,495.5 421.5,486.5 421.5,477.5C 430.94,477.377 440.274,476.377 449.5,474.5C 449.5,484.5 449.5,494.5 449.5,504.5 Z"/></g>
</svg>
