<?xml version="1.0" encoding="UTF-8"?>
<!DOCTYPE svg PUBLIC "-//W3C//DTD SVG 1.1//EN" "http://www.w3.org/Graphics/SVG/1.1/DTD/svg11.dtd">
<svg xmlns="http://www.w3.org/2000/svg" version="1.1" width="512px" height="512px" style="shape-rendering:geometricPrecision; text-rendering:geometricPrecision; image-rendering:optimizeQuality; fill-rule:evenodd; clip-rule:evenodd" xmlns:xlink="http://www.w3.org/1999/xlink">
<g><path style="opacity:0.993" fill="#673821" d="M 388.5,173.5 C 382.98,167.21 375.98,164.21 367.5,164.5C 367.5,154.833 367.5,145.167 367.5,135.5C 319.228,134.36 276.728,118.36 240,87.5C 231.333,110.833 215.333,126.833 192,135.5C 191.5,145.161 191.334,154.828 191.5,164.5C 182.937,163.951 175.937,166.951 170.5,173.5C 171.646,152.439 173.479,131.439 176,110.5C 187.268,66.8984 214.768,39.7317 258.5,29C 301.287,22.2571 336.454,35.4238 364,68.5C 376.327,85.4963 383.327,104.496 385,125.5C 386.278,141.497 387.444,157.497 388.5,173.5 Z"/></g>
<g><path style="opacity:1" fill="#fccaa7" d="M 367.5,164.5 C 367.772,180.528 367.439,196.528 366.5,212.5C 360.345,245.31 342.012,268.31 311.5,281.5C 290.128,289.372 268.795,289.372 247.5,281.5C 216.984,268.307 198.651,245.307 192.5,212.5C 191.516,196.578 191.183,180.578 191.5,164.5C 191.334,154.828 191.5,145.161 192,135.5C 215.333,126.833 231.333,110.833 240,87.5C 276.728,118.36 319.228,134.36 367.5,135.5C 367.5,145.167 367.5,154.833 367.5,164.5 Z"/></g>
<g><path style="opacity:1" fill="#6b3c25" d="M 223.5,139.5 C 235.047,138.408 245.713,140.908 255.5,147C 259.818,150.602 259.484,153.435 254.5,155.5C 239.62,145.066 224.62,144.899 209.5,155C 204.917,155.934 203.417,154.1 205,149.5C 210.457,144.691 216.624,141.357 223.5,139.5 Z"/></g>
<g><path style="opacity:1" fill="#6b3c25" d="M 319.5,139.5 C 331.047,138.408 341.713,140.908 351.5,147C 355.818,150.602 355.484,153.435 350.5,155.5C 335.62,145.066 320.62,144.899 305.5,155C 300.917,155.934 299.417,154.1 301,149.5C 306.457,144.691 312.624,141.357 319.5,139.5 Z"/></g>
<g><path style="opacity:0.993" fill="#f6b890" d="M 191.5,164.5 C 191.183,180.578 191.516,196.578 192.5,212.5C 188.395,212.766 184.395,212.266 180.5,211C 175.713,208.045 171.38,204.545 167.5,200.5C 165.582,194.312 165.082,187.979 166,181.5C 166.754,178.316 168.254,175.649 170.5,173.5C 175.937,166.951 182.937,163.951 191.5,164.5 Z"/></g>
<g><path style="opacity:1" fill="#693a23" d="M 227.5,163.5 C 240.018,163.505 244.851,169.505 242,181.5C 234.966,189.413 227.966,189.413 221,181.5C 217.82,173.532 219.987,167.532 227.5,163.5 Z"/></g>
<g><path style="opacity:1" fill="#693a23" d="M 323.5,163.5 C 336.018,163.505 340.851,169.505 338,181.5C 330.966,189.413 323.966,189.413 317,181.5C 313.82,173.532 315.987,167.532 323.5,163.5 Z"/></g>
<g><path style="opacity:0.992" fill="#f6b890" d="M 367.5,164.5 C 375.98,164.21 382.98,167.21 388.5,173.5C 390.746,175.649 392.246,178.316 393,181.5C 393.918,187.979 393.418,194.312 391.5,200.5C 388.045,203.779 384.379,206.946 380.5,210C 376.037,211.975 371.371,212.808 366.5,212.5C 367.439,196.528 367.772,180.528 367.5,164.5 Z"/></g>
<g><path style="opacity:1" fill="#f7b991" d="M 276.5,191.5 C 281.28,190.641 284.78,192.308 287,196.5C 287.667,203.833 287.667,211.167 287,218.5C 283.987,223.535 279.82,224.702 274.5,222C 273.299,221.097 272.465,219.931 272,218.5C 271.333,211.167 271.333,203.833 272,196.5C 273.025,194.313 274.525,192.646 276.5,191.5 Z"/></g>
<g><path style="opacity:0.993" fill="#673821" d="M 167.5,200.5 C 171.38,204.545 175.713,208.045 180.5,211C 184.395,212.266 188.395,212.766 192.5,212.5C 198.651,245.307 216.984,268.307 247.5,281.5C 247.5,286.167 247.5,290.833 247.5,295.5C 242.383,297.226 237.383,299.226 232.5,301.5C 231.739,300.609 230.739,299.942 229.5,299.5C 223.847,300.731 218.18,301.897 212.5,303C 210.771,304.789 210.104,306.956 210.5,309.5C 201.765,313.868 193.098,318.201 184.5,322.5C 172.958,315.769 165.791,305.769 163,292.5C 163.585,261.799 165.085,231.132 167.5,200.5 Z"/></g>
<g><path style="opacity:0.993" fill="#673821" d="M 391.5,200.5 C 393.915,231.132 395.415,261.799 396,292.5C 393.209,305.769 386.042,315.769 374.5,322.5C 366.361,318.265 358.028,314.265 349.5,310.5C 348.815,308.586 348.315,306.586 348,304.5C 341.846,302.333 335.513,300.666 329,299.5C 327.989,300.056 327.156,300.722 326.5,301.5C 321.505,299.501 316.505,297.501 311.5,295.5C 311.5,290.833 311.5,286.167 311.5,281.5C 342.012,268.31 360.345,245.31 366.5,212.5C 371.371,212.808 376.037,211.975 380.5,210C 384.379,206.946 388.045,203.779 391.5,200.5 Z"/></g>
<g><path style="opacity:1" fill="#e62827" d="M 255.5,239.5 C 271.5,239.5 287.5,239.5 303.5,239.5C 301.772,254.061 293.606,262.061 279,263.5C 264.928,261.594 257.094,253.594 255.5,239.5 Z"/></g>
<g><path style="opacity:1" fill="#f6b991" d="M 247.5,281.5 C 268.795,289.372 290.128,289.372 311.5,281.5C 311.5,286.167 311.5,290.833 311.5,295.5C 301.074,307.324 290.407,318.991 279.5,330.5C 268.593,318.991 257.926,307.324 247.5,295.5C 247.5,290.833 247.5,286.167 247.5,281.5 Z"/></g>
<g><path style="opacity:1" fill="#c9dbf8" d="M 247.5,295.5 C 257.926,307.324 268.593,318.991 279.5,330.5C 290.407,318.991 301.074,307.324 311.5,295.5C 316.505,297.501 321.505,299.501 326.5,301.5C 326.679,307.404 326.012,313.071 324.5,318.5C 324.631,317.761 324.464,317.094 324,316.5C 317.49,328.197 310.49,339.531 303,350.5C 296.635,345.299 290.135,340.299 283.5,335.5C 280.833,330.167 278.167,330.167 275.5,335.5C 268.865,340.299 262.365,345.299 256,350.5C 248.57,339.3 241.403,327.967 234.5,316.5C 233.111,311.731 232.444,306.731 232.5,301.5C 237.383,299.226 242.383,297.226 247.5,295.5 Z"/></g>
<g><path style="opacity:1" fill="#fefefe" d="M 232.5,301.5 C 232.444,306.731 233.111,311.731 234.5,316.5C 241.167,366.165 247.833,415.832 254.5,465.5C 254.657,466.873 254.49,468.207 254,469.5C 238.692,448.692 223.192,428.025 207.5,407.5C 214.044,398.245 220.711,389.078 227.5,380C 218.648,375.742 209.648,371.742 200.5,368C 203.091,348.523 206.424,329.023 210.5,309.5C 210.104,306.956 210.771,304.789 212.5,303C 218.18,301.897 223.847,300.731 229.5,299.5C 230.739,299.942 231.739,300.609 232.5,301.5 Z"/></g>
<g><path style="opacity:1" fill="#fefefe" d="M 349.5,310.5 C 352.382,327.743 355.715,344.91 359.5,362C 358.66,363.767 357.327,365.101 355.5,366C 347.172,370.162 339.172,374.829 331.5,380C 338.289,389.078 344.956,398.245 351.5,407.5C 335.808,428.025 320.308,448.692 305,469.5C 304.51,468.207 304.343,466.873 304.5,465.5C 311.021,416.48 317.687,367.48 324.5,318.5C 326.012,313.071 326.679,307.404 326.5,301.5C 327.156,300.722 327.989,300.056 329,299.5C 335.513,300.666 341.846,302.333 348,304.5C 348.315,306.586 348.815,308.586 349.5,310.5 Z"/></g>
<g><path style="opacity:0.999" fill="#f3f3f3" d="M 210.5,309.5 C 206.424,329.023 203.091,348.523 200.5,368C 209.648,371.742 218.648,375.742 227.5,380C 220.711,389.078 214.044,398.245 207.5,407.5C 223.192,428.025 238.692,448.692 254,469.5C 254.49,468.207 254.657,466.873 254.5,465.5C 255.494,475.319 255.827,485.319 255.5,495.5C 236.167,495.5 216.833,495.5 197.5,495.5C 200.484,494.679 202.317,492.679 203,489.5C 203.667,469.167 203.667,448.833 203,428.5C 202.065,425.898 200.232,424.398 197.5,424C 188.84,423.5 180.173,423.334 171.5,423.5C 171.831,393.662 171.498,363.995 170.5,334.5C 175.167,330.5 179.833,326.5 184.5,322.5C 193.098,318.201 201.765,313.868 210.5,309.5 Z"/></g>
<g><path style="opacity:0.999" fill="#f3f3f3" d="M 349.5,310.5 C 358.028,314.265 366.361,318.265 374.5,322.5C 379.461,326.126 384.128,330.126 388.5,334.5C 387.501,387.997 387.168,441.664 387.5,495.5C 359.5,495.5 331.5,495.5 303.5,495.5C 303.173,485.319 303.506,475.319 304.5,465.5C 304.343,466.873 304.51,468.207 305,469.5C 320.308,448.692 335.808,428.025 351.5,407.5C 344.956,398.245 338.289,389.078 331.5,380C 339.172,374.829 347.172,370.162 355.5,366C 357.327,365.101 358.66,363.767 359.5,362C 355.715,344.91 352.382,327.743 349.5,310.5 Z"/></g>
<g><path style="opacity:1" fill="#a7c5ed" d="M 234.5,316.5 C 241.403,327.967 248.57,339.3 256,350.5C 262.365,345.299 268.865,340.299 275.5,335.5C 275.5,388.833 275.5,442.167 275.5,495.5C 268.833,495.5 262.167,495.5 255.5,495.5C 255.827,485.319 255.494,475.319 254.5,465.5C 247.833,415.832 241.167,366.165 234.5,316.5 Z"/></g>
<g><path style="opacity:1" fill="#a7c5ed" d="M 324.5,318.5 C 317.687,367.48 311.021,416.48 304.5,465.5C 303.506,475.319 303.173,485.319 303.5,495.5C 296.833,495.5 290.167,495.5 283.5,495.5C 283.5,442.167 283.5,388.833 283.5,335.5C 290.135,340.299 296.635,345.299 303,350.5C 310.49,339.531 317.49,328.197 324,316.5C 324.464,317.094 324.631,317.761 324.5,318.5 Z"/></g>
<g><path style="opacity:1" fill="#89b2e6" d="M 283.5,335.5 C 283.5,388.833 283.5,442.167 283.5,495.5C 280.833,495.5 278.167,495.5 275.5,495.5C 275.5,442.167 275.5,388.833 275.5,335.5C 278.167,330.167 280.833,330.167 283.5,335.5 Z"/></g>
<g><path style="opacity:1" fill="#e6e6e6" d="M 170.5,334.5 C 171.498,363.995 171.831,393.662 171.5,423.5C 163.747,423.799 156.08,423.466 148.5,422.5C 145.939,415.604 141.273,410.604 134.5,407.5C 133.52,404.914 133.187,402.247 133.5,399.5C 135.5,399.5 137.5,399.5 139.5,399.5C 139.666,394.821 139.499,390.155 139,385.5C 138.184,384.177 137.017,383.511 135.5,383.5C 142.876,364.12 154.543,347.787 170.5,334.5 Z"/></g>
<g><path style="opacity:1" fill="#e6e6e6" d="M 388.5,334.5 C 412.16,354.374 426.326,379.707 431,410.5C 431.5,438.831 431.667,467.165 431.5,495.5C 416.833,495.5 402.167,495.5 387.5,495.5C 387.168,441.664 387.501,387.997 388.5,334.5 Z"/></g>
<g><path style="opacity:0.999" fill="#3178d2" d="M 135.5,383.5 C 137.017,383.511 138.184,384.177 139,385.5C 139.499,390.155 139.666,394.821 139.5,399.5C 137.5,399.5 135.5,399.5 133.5,399.5C 118.833,399.5 104.167,399.5 89.5,399.5C 87.5,399.5 85.5,399.5 83.5,399.5C 83.1953,394.238 83.5286,389.072 84.5,384C 101.497,383.5 118.497,383.333 135.5,383.5 Z"/></g>
<g><path style="opacity:0.997" fill="#89b2e6" d="M 89.5,399.5 C 104.167,399.5 118.833,399.5 133.5,399.5C 133.187,402.247 133.52,404.914 134.5,407.5C 141.273,410.604 145.939,415.604 148.5,422.5C 134.006,423.331 119.339,423.831 104.5,424C 103.069,424.465 101.903,425.299 101,426.5C 99.3567,447.411 99.0233,468.411 100,489.5C 100.599,492.254 102.099,494.254 104.5,495.5C 93.585,495.82 82.7517,495.487 72,494.5C 71.3333,472.167 71.3333,449.833 72,427.5C 74.6423,418.196 80.1423,411.196 88.5,406.5C 89.4742,404.257 89.8076,401.924 89.5,399.5 Z"/></g>
<g><path style="opacity:1" fill="#c1c0c0" d="M 148.5,422.5 C 156.08,423.466 163.747,423.799 171.5,423.5C 180.173,423.334 188.84,423.5 197.5,424C 200.232,424.398 202.065,425.898 203,428.5C 203.667,448.833 203.667,469.167 203,489.5C 202.317,492.679 200.484,494.679 197.5,495.5C 166.5,495.5 135.5,495.5 104.5,495.5C 102.099,494.254 100.599,492.254 100,489.5C 99.0233,468.411 99.3567,447.411 101,426.5C 101.903,425.299 103.069,424.465 104.5,424C 119.339,423.831 134.006,423.331 148.5,422.5 Z"/></g>
<g><path style="opacity:1" fill="#e52a29" d="M 127.5,435.5 C 127.5,440.833 127.5,446.167 127.5,451.5C 123.818,451.665 120.152,451.499 116.5,451C 110.741,447.108 110.074,442.441 114.5,437C 118.7,435.633 123.033,435.133 127.5,435.5 Z"/></g>
<g><path style="opacity:1" fill="#fed65b" d="M 127.5,435.5 C 131.936,435.21 136.27,435.71 140.5,437C 144.5,441.333 144.5,445.667 140.5,450C 136.27,451.29 131.936,451.79 127.5,451.5C 127.5,446.167 127.5,440.833 127.5,435.5 Z"/></g>
<g><path style="opacity:1" fill="#e52a29" d="M 175.5,435.5 C 175.5,440.833 175.5,446.167 175.5,451.5C 171.818,451.665 168.152,451.499 164.5,451C 158.741,447.108 158.074,442.441 162.5,437C 166.7,435.633 171.033,435.133 175.5,435.5 Z"/></g>
<g><path style="opacity:1" fill="#fed65b" d="M 175.5,435.5 C 179.936,435.21 184.27,435.71 188.5,437C 192.5,441.333 192.5,445.667 188.5,450C 184.27,451.29 179.936,451.79 175.5,451.5C 175.5,446.167 175.5,440.833 175.5,435.5 Z"/></g>
<g><path style="opacity:1" fill="#e52a29" d="M 127.5,467.5 C 127.5,472.833 127.5,478.167 127.5,483.5C 123.818,483.665 120.152,483.499 116.5,483C 110.741,479.108 110.074,474.441 114.5,469C 118.7,467.633 123.033,467.133 127.5,467.5 Z"/></g>
<g><path style="opacity:1" fill="#fed65b" d="M 127.5,467.5 C 131.936,467.21 136.27,467.71 140.5,469C 144.5,473.333 144.5,477.667 140.5,482C 136.27,483.29 131.936,483.79 127.5,483.5C 127.5,478.167 127.5,472.833 127.5,467.5 Z"/></g>
<g><path style="opacity:1" fill="#e52a29" d="M 175.5,467.5 C 175.5,472.833 175.5,478.167 175.5,483.5C 171.818,483.665 168.152,483.499 164.5,483C 158.741,479.108 158.074,474.441 162.5,469C 166.7,467.633 171.033,467.133 175.5,467.5 Z"/></g>
<g><path style="opacity:1" fill="#fed65b" d="M 175.5,467.5 C 179.936,467.21 184.27,467.71 188.5,469C 192.5,473.333 192.5,477.667 188.5,482C 184.27,483.29 179.936,483.79 175.5,483.5C 175.5,478.167 175.5,472.833 175.5,467.5 Z"/></g>
</svg>
