<svg width="37" height="37" viewBox="0 0 37 37" fill="none" xmlns="http://www.w3.org/2000/svg">
<path fill-rule="evenodd" clip-rule="evenodd" d="M6.16666 4.625C5.34891 4.625 4.56465 4.94985 3.98642 5.52809C3.40818 6.10632 3.08333 6.89058 3.08333 7.70833V29.2917C3.08333 30.1094 3.40818 30.8937 3.98642 31.4719C4.56465 32.0501 5.34891 32.375 6.16666 32.375H30.8333C31.6511 32.375 32.4353 32.0501 33.0136 31.4719C33.5918 30.8937 33.9167 30.1094 33.9167 29.2917V7.70833C33.9167 6.89058 33.5918 6.10632 33.0136 5.52809C32.4353 4.94985 31.6511 4.625 30.8333 4.625H6.16666ZM13.2969 13.3046C13.3311 13.0098 13.4337 12.7272 13.5966 12.4791C13.7594 12.2311 13.978 12.0246 14.2348 11.876C14.4917 11.7274 14.7797 11.641 15.0759 11.6235C15.3721 11.606 15.6683 11.6579 15.9408 11.7752C16.7178 12.1082 18.3582 12.8575 20.4363 14.0569C21.8968 14.8916 23.3073 15.811 24.6605 16.8103C24.8984 16.9874 25.0917 17.2176 25.2248 17.4826C25.3579 17.7476 25.4272 18.04 25.4272 18.3366C25.4272 18.6331 25.3579 18.9256 25.2248 19.1906C25.0917 19.4556 24.8984 19.6858 24.6605 19.8628C23.3072 20.8611 21.8968 21.7795 20.4363 22.6132C18.9836 23.4617 17.4826 24.2246 15.9408 24.8979C15.6683 25.0156 15.372 25.0678 15.0757 25.0505C14.7794 25.0331 14.4912 24.9467 14.2343 24.7981C13.9774 24.6494 13.7588 24.4428 13.596 24.1945C13.4332 23.9463 13.3308 23.6635 13.2969 23.3686C13.1119 21.6977 13.0213 20.0177 13.0255 18.3366C13.0255 15.9455 13.1982 14.1448 13.2969 13.3046Z" fill="white"/>
</svg>
