<svg width="30" height="23" viewBox="0 0 30 23" fill="none" xmlns="http://www.w3.org/2000/svg">
<path d="M29.4836 14.2147C29.3966 13.9817 29.2944 13.7541 29.1776 13.5335L23.7623 1.70596C23.711 1.59204 23.6377 1.48853 23.5461 1.40096C23.1592 1.02943 22.6998 0.734708 22.1942 0.533632C21.6886 0.332556 21.1468 0.229063 20.5995 0.229063C20.0522 0.229063 19.5104 0.332556 19.0048 0.533632C18.4992 0.734708 18.0398 1.02943 17.6529 1.40096C17.4582 1.58804 17.3487 1.84153 17.3482 2.10596V5.23096H13.1815V2.10596C13.1816 1.9746 13.1548 1.8445 13.1025 1.72311C13.0502 1.60171 12.9735 1.4914 12.8768 1.39846C12.4899 1.02693 12.0305 0.732208 11.525 0.531132C11.0194 0.330056 10.4775 0.226563 9.93023 0.226562C9.38297 0.226563 8.84108 0.330056 8.33549 0.531132C7.82991 0.732208 7.37054 1.02693 6.98361 1.39846C6.89205 1.48603 6.8187 1.58954 6.76747 1.70346L1.3521 13.531C1.23529 13.7516 1.13309 13.9792 1.04611 14.2122C0.739472 15.0359 0.624132 15.9139 0.708173 16.7849C0.792214 17.6559 1.0736 18.4987 1.53263 19.2543C1.99165 20.0098 2.61722 20.6599 3.36549 21.159C4.11376 21.6581 4.96665 21.994 5.86441 22.1434C6.76217 22.2927 7.68309 22.2518 8.56265 22.0236C9.44221 21.7953 10.2592 21.3851 10.9562 20.8219C11.6533 20.2586 12.2137 19.5559 12.5981 18.7628C12.9825 17.9698 13.1816 17.1057 13.1815 16.231V7.23096H17.3482V16.231C17.3477 17.1058 17.5465 17.9701 17.9307 18.7633C18.3148 19.5566 18.875 20.2596 19.572 20.8232C20.269 21.3867 21.0859 21.7971 21.9655 22.0256C22.8451 22.2542 23.7661 22.2953 24.664 22.1461C25.5619 21.9969 26.415 21.6611 27.1634 21.162C27.9119 20.663 28.5376 20.0129 28.9968 19.2573C29.4559 18.5017 29.7374 17.6588 29.8215 16.7877C29.9056 15.9167 29.7903 15.0385 29.4836 14.2147ZM8.58648 2.69971C8.93377 2.41899 9.36708 2.25486 9.82047 2.23229C10.2739 2.20973 10.7225 2.32997 11.0982 2.57471V11.7635C10.2849 11.0624 9.294 10.5788 8.22473 10.3612C7.15546 10.1436 6.04539 10.1995 5.00575 10.5235L8.58648 2.69971ZM6.93153 20.231C6.10744 20.231 5.30186 19.9964 4.61665 19.5568C3.93145 19.1173 3.3974 18.4926 3.08203 17.7617C2.76667 17.0308 2.68415 16.2265 2.84492 15.4506C3.0057 14.6747 3.40253 13.9619 3.98525 13.4025C4.56797 12.8431 5.3104 12.4622 6.11865 12.3078C6.92691 12.1535 7.76469 12.2327 8.52604 12.5354C9.2874 12.8382 9.93815 13.3509 10.396 14.0087C10.8538 14.6665 11.0982 15.4398 11.0982 16.231C11.0982 17.2918 10.6592 18.3092 9.87781 19.0594C9.09641 19.8095 8.0366 20.231 6.93153 20.231ZM19.4315 2.57346C19.8072 2.32872 20.2559 2.20848 20.7093 2.23104C21.1627 2.25361 21.596 2.41774 21.9432 2.69846L25.524 10.521C24.4842 10.1972 23.3741 10.1414 22.3048 10.3593C21.2355 10.5771 20.2447 11.0609 19.4315 11.7622V2.57346ZM23.5982 20.231C22.7741 20.231 21.9685 19.9964 21.2833 19.5568C20.5981 19.1173 20.0641 18.4926 19.7487 17.7617C19.4333 17.0308 19.3508 16.2265 19.5116 15.4506C19.6724 14.6747 20.0692 13.9619 20.6519 13.4025C21.2346 12.8431 21.9771 12.4622 22.7853 12.3078C23.5936 12.1535 24.4314 12.2327 25.1927 12.5354C25.9541 12.8382 26.6048 13.3509 27.0627 14.0087C27.5205 14.6665 27.7649 15.4398 27.7649 16.231C27.7649 17.2918 27.3259 18.3092 26.5445 19.0594C25.7631 19.8095 24.7033 20.231 23.5982 20.231Z" fill="black"/>
</svg>
