<svg width="78" height="67" viewBox="0 0 78 67" fill="none" xmlns="http://www.w3.org/2000/svg">
<path d="M28.1003 10.5C31.8133 10.5 35.3743 11.975 37.9998 14.6005C40.6253 17.226 42.1003 20.787 42.1003 24.5C42.1003 28.213 40.6253 31.774 37.9998 34.3995C35.3743 37.025 31.8133 38.5 28.1003 38.5C24.3872 38.5 20.8263 37.025 18.2008 34.3995C15.5753 31.774 14.1003 28.213 14.1003 24.5C14.1003 20.787 15.5753 17.226 18.2008 14.6005C20.8263 11.975 24.3872 10.5 28.1003 10.5ZM28.1003 45.5C37.4453 45.5 56.1003 50.19 56.1003 59.5V66.5H0.100281V59.5C0.100281 50.19 18.7553 45.5 28.1003 45.5ZM55.2603 11.76C62.3303 19.46 62.3303 30.135 55.2603 37.205L49.3803 31.29C52.3203 27.16 52.3203 21.805 49.3803 17.675L55.2603 11.76ZM66.8453 0C80.6003 14.175 80.4953 35.385 66.8453 49L61.1403 43.295C70.8353 32.165 70.8353 16.275 61.1403 5.705L66.8453 0Z" fill="white"/>
</svg>
