<?xml version="1.0" encoding="UTF-8"?>
<!DOCTYPE svg PUBLIC "-//W3C//DTD SVG 1.1//EN" "http://www.w3.org/Graphics/SVG/1.1/DTD/svg11.dtd">
<svg xmlns="http://www.w3.org/2000/svg" version="1.1" width="64px" height="64px" style="shape-rendering:geometricPrecision; text-rendering:geometricPrecision; image-rendering:optimizeQuality; fill-rule:evenodd; clip-rule:evenodd" xmlns:xlink="http://www.w3.org/1999/xlink">
<g><path style="opacity:0.712" fill="#000000" d="M 7.5,3.5 C 16.2756,3.05922 24.9422,3.55922 33.5,5C 36,7.5 38.5,10 41,12.5C 41.3333,18.1667 41.6667,23.8333 42,29.5C 43.5843,28.1387 45.4176,27.472 47.5,27.5C 47.975,38.3304 47.475,48.9971 46,59.5C 39.2356,54.5329 31.7356,51.3662 23.5,50C 22.5495,46.9433 22.2161,43.7766 22.5,40.5C 19.1667,40.5 15.8333,40.5 12.5,40.5C 12.5,39.1667 12.5,37.8333 12.5,36.5C 20.875,37.1142 28.875,35.7809 36.5,32.5C 37.4954,26.8722 37.8288,21.2055 37.5,15.5C 34.8333,15.5 32.1667,15.5 29.5,15.5C 29.5,12.8333 29.5,10.1667 29.5,7.5C 22.1667,7.5 14.8333,7.5 7.5,7.5C 7.5,20.5 7.5,33.5 7.5,46.5C 11.5,46.5 15.5,46.5 19.5,46.5C 19.5,47.8333 19.5,49.1667 19.5,50.5C 15.1539,50.6657 10.8206,50.499 6.5,50C 5.66667,49.1667 4.83333,48.3333 4,47.5C 3.33333,34.1667 3.33333,20.8333 4,7.5C 4.68972,5.64977 5.85639,4.31643 7.5,3.5 Z M 43.5,32.5 C 44.8188,39.344 44.8188,46.344 43.5,53.5C 38.4002,49.7832 32.7335,47.4499 26.5,46.5C 24.6614,39.8302 27.3281,36.9969 34.5,38C 37.5638,36.1412 40.5638,34.3079 43.5,32.5 Z"/></g>
<g><path style="opacity:0.833" fill="#000000" d="M 12.5,21.5 C 19.1667,21.5 25.8333,21.5 32.5,21.5C 32.5,22.5 32.5,23.5 32.5,24.5C 25.8333,24.5 19.1667,24.5 12.5,24.5C 12.5,23.5 12.5,22.5 12.5,21.5 Z"/></g>
<g><path style="opacity:0.641" fill="#000000" d="M 13.5,28.5 C 19.5092,28.3338 25.5092,28.5005 31.5,29C 32.3366,30.0113 32.67,31.1779 32.5,32.5C 25.8333,32.5 19.1667,32.5 12.5,32.5C 12.4326,31.0413 12.7659,29.7079 13.5,28.5 Z"/></g>
<g><path style="opacity:0.667" fill="#000000" d="M 55.5,36.5 C 56.5,36.5 57.5,36.5 58.5,36.5C 59.8333,41.1667 59.8333,45.8333 58.5,50.5C 57.5,50.5 56.5,50.5 55.5,50.5C 55.2908,45.6827 55.2908,41.0161 55.5,36.5 Z"/></g>
<g><path style="opacity:0.653" fill="#000000" d="M 50.5,37.5 C 51.5,37.5 52.5,37.5 53.5,37.5C 53.8271,39.4878 54.1604,41.4878 54.5,43.5C 54.5468,46.0732 53.5468,48.0732 51.5,49.5C 50.2646,45.4217 49.9313,41.4217 50.5,37.5 Z"/></g>
</svg>
