<svg width="28" height="26" viewBox="0 0 28 26" fill="none" xmlns="http://www.w3.org/2000/svg">
<path d="M14.125 0C11.4467 0 8.82857 0.762437 6.60165 2.1909C4.37474 3.61935 2.63907 5.64968 1.61413 8.02512C0.589196 10.4006 0.321025 13.0144 0.843534 15.5362C1.36604 18.0579 2.65576 20.3743 4.5496 22.1924C6.44343 24.0105 8.85633 25.2486 11.4832 25.7502C14.11 26.2518 16.8328 25.9944 19.3072 25.0104C21.7816 24.0265 23.8965 22.3603 25.3845 20.2224C26.8725 18.0846 27.6667 15.5712 27.6667 13C27.6629 9.5533 26.235 6.24882 23.6962 3.81163C21.1575 1.37445 17.7153 0.00363977 14.125 0ZM7.10417 21.6875C7.85773 20.5561 8.89584 19.625 10.1228 18.9801C11.3498 18.3351 12.7261 17.9971 14.125 17.9971C15.5239 17.9971 16.9002 18.3351 18.1272 18.9801C19.3542 19.625 20.3923 20.5561 21.1458 21.6875C19.1385 23.1862 16.668 23.9999 14.125 23.9999C11.582 23.9999 9.11154 23.1862 7.10417 21.6875ZM9.95833 12C9.95833 11.2089 10.2027 10.4355 10.6605 9.77772C11.1184 9.11992 11.7691 8.60723 12.5305 8.30448C13.2918 8.00173 14.1296 7.92252 14.9379 8.07686C15.7461 8.2312 16.4886 8.61216 17.0713 9.17157C17.654 9.73098 18.0508 10.4437 18.2116 11.2196C18.3724 11.9956 18.2899 12.7998 17.9745 13.5307C17.6591 14.2616 17.1251 14.8864 16.4399 15.3259C15.7547 15.7654 14.9491 16 14.125 16C13.0199 16 11.9601 15.5786 11.1787 14.8284C10.3973 14.0783 9.95833 13.0609 9.95833 12ZM22.6875 20.3013C21.5257 18.6851 19.8922 17.4348 17.9922 16.7075C19.0128 15.9358 19.7575 14.878 20.1228 13.6811C20.4881 12.4843 20.4559 11.2079 20.0305 10.0294C19.6051 8.851 18.8078 7.82911 17.7494 7.10586C16.691 6.38262 15.4241 5.99397 14.125 5.99397C12.8259 5.99397 11.559 6.38262 10.5006 7.10586C9.44221 7.82911 8.64489 8.851 8.21952 10.0294C7.79414 11.2079 7.76187 12.4843 8.12718 13.6811C8.49249 14.878 9.23722 15.9358 10.2578 16.7075C8.35784 17.4348 6.72426 18.6851 5.5625 20.3013C4.09449 18.7165 3.13499 16.7581 2.79954 14.6619C2.46409 12.5657 2.76699 10.4211 3.67177 8.48637C4.57655 6.55163 6.04463 4.90922 7.89923 3.75692C9.75382 2.60462 11.9159 1.99156 14.125 1.99156C16.3341 1.99156 18.4962 2.60462 20.3508 3.75692C22.2054 4.90922 23.6735 6.55163 24.5782 8.48637C25.483 10.4211 25.7859 12.5657 25.4505 14.6619C25.115 16.7581 24.1555 18.7165 22.6875 20.3013Z" fill="black"/>
</svg>
