<svg width="76" height="60" viewBox="0 0 76 60" fill="none" xmlns="http://www.w3.org/2000/svg">
<path d="M67.9962 0H7.99625C3.86 0 0.496246 3.36375 0.496246 7.5V52.5C0.496246 56.6362 3.86 60 7.99625 60H67.9962C72.1325 60 75.4962 56.6362 75.4962 52.5V7.5C75.4962 3.36375 72.1325 0 67.9962 0ZM17.3712 11.25C18.8631 11.25 20.2938 11.8426 21.3487 12.8975C22.4036 13.9524 22.9962 15.3832 22.9962 16.875C22.9962 18.3668 22.4036 19.7976 21.3487 20.8525C20.2938 21.9074 18.8631 22.5 17.3712 22.5C15.8794 22.5 14.4487 21.9074 13.3938 20.8525C12.3389 19.7976 11.7462 18.3668 11.7462 16.875C11.7462 15.3832 12.3389 13.9524 13.3938 12.8975C14.4487 11.8426 15.8794 11.25 17.3712 11.25ZM37.9962 48.75H11.7462L26.7462 30L32.3712 37.5L43.6212 22.5L64.2462 48.75H37.9962Z" fill="white"/>
</svg>
